<svg width="206" height="44" viewBox="0 0 206 44" fill="none" xmlns="http://www.w3.org/2000/svg">
<path d="M44.1641 8.40142C44.1641 7.74398 44.1641 7.08654 44.3613 6.49484C44.5585 5.90313 44.427 5.17995 44.2298 4.58825C44.1641 3.79931 43.9011 3.07612 43.4409 2.55017C42.9807 1.89272 42.1917 1.82698 41.6 1.30102C41.0741 0.840812 40.2851 0.775066 39.5619 0.775066C39.1017 0.775066 38.6415 0.643575 38.247 0.57783C37.5896 0.446341 36.8664 0.577832 36.2747 0.775066C35.8145 0.84081 35.2885 0.84081 34.8941 1.10379C34.3681 1.43251 33.7107 1.56399 33.3162 2.15569C32.9875 2.48442 32.6588 2.81315 32.5273 3.27336C32.4615 3.86506 32.5273 4.39101 33.0532 4.78547C33.1847 4.91696 33.4477 4.91697 33.5134 5.17995C33.4477 5.57441 33.2505 5.90313 33.119 6.2976C32.856 6.69207 33.5134 6.95504 33.2505 7.41525L32.3958 8.99313C32.2643 9.19036 32.1328 9.45333 32.1328 9.71631C32.2643 10.1765 32.7245 9.97929 33.0532 10.2423C33.2505 10.5052 32.9217 10.6367 32.9217 10.8997C32.856 11.0969 33.1847 11.1627 33.0532 11.3599C32.856 11.6229 33.1847 11.8201 33.2505 12.0831C33.2505 12.4118 33.0532 12.8063 33.3162 13.0693C33.9737 13.5295 35.0256 13.2008 35.7488 13.5295C36.1432 13.7925 36.0117 14.3184 36.0117 14.7129C35.8145 16.4223 34.9598 17.8686 33.9079 19.2493C33.7764 19.3808 33.7107 19.6437 33.7764 19.841C33.9079 19.9067 34.1709 19.9067 34.3024 19.841C36.209 19.1835 37.7211 17.4742 39.6277 16.6852C40.3509 16.3565 41.2056 16.225 41.9945 16.0278C42.1917 15.8963 42.0602 15.6333 42.0602 15.3703C41.6658 14.3184 41.2055 13.2665 41.2713 12.0831C41.2713 11.6229 41.7973 11.5572 42.0602 11.4257C42.5862 11.2942 42.9149 10.7682 43.1121 10.308C43.5724 9.65057 44.0983 9.12461 44.1641 8.40142Z" fill="black"/>
<path d="M68.1614 22.2077C67.7669 22.2077 66.8465 22.5365 66.0575 22.9967V22.0105L63.625 22.6022V22.9309L64.8084 23.3254V32.1351L63.625 32.5954V32.9898H67.5039V32.5954L66.0575 32.1351V29.1109C66.3205 29.1766 66.6492 29.2424 66.9122 29.2424C68.6216 29.2424 70.7254 27.9275 70.7254 25.5607C70.7254 23.6541 69.6078 22.2077 68.1614 22.2077ZM66.7807 28.5849C66.5178 28.5849 66.3205 28.5849 65.9918 28.5192V23.3254C66.3205 23.1939 66.715 23.0624 67.1752 23.0624C68.4901 23.0624 69.4105 24.2458 69.4105 25.9552C69.4105 27.9275 68.4901 28.5849 66.7807 28.5849Z" fill="black"/>
<path d="M75.4583 18.4604C73.6175 18.4604 72.4341 19.5781 72.4341 21.3532V22.2736H71.3164V22.9311H72.4341V28.3221L71.3164 28.8481V29.2426H75.0639V28.8481L73.6175 28.3221V22.9311H75.6555V22.2736H73.6175V21.156C73.6175 20.3013 73.8147 19.8411 74.1434 19.5124C74.4721 19.2494 74.9324 19.0522 75.3926 19.0522C75.4583 19.0522 75.5241 19.0522 75.5898 19.0522L75.9843 19.9726H76.839V18.6577C76.5102 18.5262 75.9843 18.4604 75.4583 18.4604Z" fill="black"/>
<path d="M4.84827 23.7856L3.27041 22.7337C2.21849 22.0763 2.02126 21.7476 2.02126 21.0244C2.02126 19.9725 2.74445 19.5123 4.19083 19.5123C4.4538 19.5123 4.51955 19.5122 4.91402 19.578H5.0455L5.76869 21.4188H6.29465V19.1835L6.09742 19.1178L5.50572 18.9863C5.30849 18.9206 5.0455 18.9206 4.71678 18.8548C4.32231 18.7891 3.86211 18.7891 3.59913 18.7891C1.88977 18.7891 0.772112 19.9067 0.772112 21.5503C0.772112 22.0763 0.837856 22.4708 1.10083 22.8652C1.36381 23.3254 1.62679 23.5884 2.41572 24.1144L3.8621 25.1005C4.91402 25.8237 5.11125 26.1525 5.11125 26.9414C5.11125 28.059 4.38806 28.585 3.00743 28.585C2.61296 28.585 2.28424 28.585 1.88977 28.5192L1.16658 26.6127H0.640625V28.9137L0.772112 28.9795L1.62679 29.1767C2.28424 29.3082 2.94168 29.4397 3.40189 29.4397C5.30848 29.4397 6.55763 28.322 6.55763 26.6127C6.55763 26.021 6.42614 25.495 6.09742 25.0348C5.90018 24.5746 5.76869 24.4431 4.84827 23.7856Z" fill="black"/>
<path d="M12.5402 28.3879C11.817 28.5194 11.6855 28.5194 11.2253 28.5194C10.3706 28.5194 9.77891 28.2564 9.38444 27.7304C8.98998 27.2045 8.727 26.4813 8.727 25.6266C8.727 23.9173 9.71317 22.6024 11.0281 22.6024C11.0938 22.6024 11.1595 22.6024 11.291 22.6024L11.8827 23.9173H12.6717V22.4051C12.0142 22.2079 11.554 22.0764 11.0281 22.0764C8.85849 22.0764 7.41211 23.5885 7.41211 25.8896C7.41211 27.9277 8.59551 29.3741 10.2391 29.3741C10.7651 29.3741 11.291 29.2426 11.8827 29.0453L12.5402 28.8481L12.6717 28.7824L12.6059 28.3221L12.5402 28.3879Z" fill="black"/>
<path d="M19.7053 24.5749C19.7053 23.0627 18.9822 22.0766 17.8645 22.0766C17.4043 22.0766 16.8126 22.2738 15.8922 22.7998L15.6949 22.8655V18.0662L13.3281 18.7236V19.0523L14.5115 19.4468V28.2566L13.3939 28.7825V29.177H16.6811V28.8483L15.6949 28.3223V23.26C15.9579 23.1942 16.4839 23.1285 16.9441 23.1285C18.0617 23.1285 18.5219 23.6544 18.5219 24.9693V28.388L17.47 28.914V29.3085H20.823V28.8483L19.7053 28.3223V24.5749Z" fill="black"/>
<path d="M31.0803 22.2735H28.3848V22.6022L29.3709 23.0624L27.9246 27.4673L27.8588 27.3358C27.7273 26.9414 27.7273 26.8099 27.5958 26.5469L26.1495 22.2078H25.755L23.9141 27.4673L23.8484 27.2701L23.7169 26.8756L23.5854 26.4812L22.4678 22.9967L23.5197 22.6022V22.2735H20.4297V22.6022L21.2844 22.9967L23.5197 29.2424H24.1114L25.8207 24.4431L27.3986 29.2424H27.9903L30.3571 23.0624L31.146 22.6022V22.2735H31.0803Z" fill="black"/>
<path d="M35.9445 27.796V23.9171C35.9445 22.7337 35.2871 22.2078 33.9722 22.2078C33.3805 22.2078 32.6573 22.3393 31.6711 22.7337V24.0486H32.4601L33.0518 22.7995C33.1832 22.7995 33.249 22.7995 33.3805 22.7995C34.3666 22.7995 34.6954 23.0625 34.6954 23.9829V25.5607C33.7749 25.6265 32.986 25.758 32.4601 25.8895C31.5396 26.0867 31.0137 26.6784 31.0137 27.5331C31.0137 28.585 31.7369 29.3082 32.8545 29.3082C33.1175 29.3082 33.3147 29.3082 33.512 29.1767C33.5777 29.1767 33.7749 29.0452 34.1037 28.9137L34.5639 28.6507L34.6954 28.585C34.7611 29.0452 35.0241 29.3082 35.4186 29.3082H35.4843C35.6815 29.3082 35.9445 29.2424 36.076 29.1767L37.0622 28.848V28.5192L36.339 28.2563C36.0103 28.1905 35.9445 28.1248 35.9445 27.796ZM34.7611 28.322C34.6954 28.322 34.6954 28.3878 34.6296 28.3878C34.3666 28.4535 34.2352 28.5192 34.1694 28.5192C34.0379 28.585 33.8407 28.585 33.6435 28.585C32.8545 28.585 32.3286 28.1248 32.3286 27.4016C32.3286 26.8099 32.5915 26.4812 33.249 26.2839C33.7092 26.1524 34.1694 26.0867 34.6296 26.0209V28.322H34.7611Z" fill="black"/>
<path d="M40.0868 22.8652L39.9554 22.9309V22.0105L37.6543 22.6022V22.9309L38.772 23.2596V28.322L37.6543 28.8479V29.2424H41.336V28.8479L39.9554 28.322V23.2596C40.2841 23.1282 40.6785 23.0624 40.9415 23.0624C41.0073 23.0624 41.1388 23.0624 41.2702 23.0624L41.6647 23.9171H42.5851V22.2735C42.3879 22.142 42.1249 22.0762 41.9277 22.0762C41.5332 22.0762 40.9415 22.3392 40.0868 22.8652Z" fill="black"/>
<path d="M43.4394 24.246H43.8996L44.557 22.9311H46.9238L43.1107 28.7824L43.0449 29.2426L48.436 29.3083V27.1388H48.0415L47.2526 28.6509L44.6228 28.5852L48.5017 22.7996V22.3394L43.4394 22.2737V24.246Z" fill="black"/>
<path d="M52.9738 24.969L54.9461 22.9967L56.261 22.5365V22.2078H53.171V22.5365L54.0257 22.931L51.7246 25.4293L54.4201 29.2424H56.4582V28.9137L55.472 28.4535L52.9738 24.969Z" fill="black"/>
<path d="M51.527 18.0002L49.1602 18.5919V18.9207L50.3436 19.3151V28.3879L49.2259 28.9138V29.2426H52.6446V28.9138L51.527 28.3879V18.0002Z" fill="black"/>
<path d="M59.7449 22.0105C57.7068 22.0105 56.3262 23.5884 56.3262 25.8237C56.3262 27.9275 57.6411 29.4396 59.5476 29.4396C61.5857 29.4396 63.0321 27.796 63.0321 25.5607C63.0321 23.4569 61.7172 22.0105 59.7449 22.0105ZM59.7449 28.7822C58.4957 28.7822 57.7725 27.5988 57.7725 25.6264C57.7725 23.7856 58.43 22.6679 59.6134 22.6679C60.8625 22.6679 61.5857 23.8513 61.5857 25.8894C61.5857 27.7303 60.9283 28.7822 59.7449 28.7822Z" fill="black"/>
<path d="M0.837891 40.0904V35.9485H2.54725C3.53341 35.9485 4.12512 36.4744 4.12512 37.3291C4.12512 38.381 3.27044 38.7755 2.4815 38.7755H1.69257V40.0246H0.837891V40.0904ZM2.41576 38.1181C2.87597 38.1181 3.20469 37.8551 3.20469 37.3949C3.20469 36.9347 2.87597 36.6717 2.35001 36.6717H1.56108V38.1181H2.41576Z" fill="black"/>
<path d="M9.77888 40.0904L8.85846 38.7098H8.00378V40.0904H7.21484V35.9485H9.12144C9.64739 35.9485 10.0419 36.08 10.3048 36.3429C10.5021 36.5402 10.6336 36.8689 10.6336 37.2634C10.6336 38.0523 10.1733 38.381 9.77888 38.5125H9.71313L10.765 40.0246H9.77888V40.0904ZM9.05569 38.0523C9.5159 38.0523 9.84462 37.7893 9.84462 37.3949C9.84462 36.9347 9.58164 36.7374 9.05569 36.7374H8.06952V38.1181H9.05569V38.0523Z" fill="black"/>
<path d="M15.6969 40.2219C14.4478 40.2219 13.5273 39.3015 13.5273 38.1181C13.5273 36.9347 14.5135 35.9485 15.7627 35.9485C17.0118 35.9485 17.9322 36.8689 17.9322 38.0523C17.9322 39.2357 16.9461 40.2219 15.6969 40.2219ZM15.6969 36.6059C14.908 36.6059 14.382 37.1976 14.382 37.9866C14.382 38.7755 14.9737 39.4329 15.7627 39.4329C16.5516 39.4329 17.0775 38.8412 17.0775 38.0523C17.0775 37.2634 16.4858 36.6059 15.6969 36.6059Z" fill="black"/>
<path d="M21.0879 40.0904V35.9485H24.1779V36.6717H21.8768V37.7236H23.9149V38.4468H21.8768V40.0904H21.0879Z" fill="black"/>
<path d="M27.793 40.0904V35.9485H30.883V36.6717H28.5819V37.6578H30.5542V38.381H28.5819V39.4329H30.883V40.0904H27.793Z" fill="black"/>
<path d="M35.8793 40.1562C35.2876 40.1562 34.6959 39.959 34.2357 39.5645L34.1699 39.4988L34.6301 38.9071L34.6959 38.9728C35.0903 39.3015 35.4848 39.433 35.945 39.433C36.471 39.433 36.6025 39.17 36.6025 38.9728C36.6025 38.6441 36.4052 38.5126 35.682 38.3811C34.7616 38.1181 34.3014 37.9209 34.3014 37.132C34.3014 36.4088 34.8931 35.8828 35.7478 35.8828C36.2737 35.8828 36.7997 36.0143 37.1942 36.343L37.2599 36.4088L36.8654 37.0005L36.7997 36.9347C36.4052 36.6718 36.0765 36.5403 35.7478 36.5403C35.3533 36.5403 35.1561 36.7375 35.1561 37.0005C35.1561 37.3292 35.4191 37.4607 36.1423 37.6579C37.0627 37.9209 37.4571 38.2496 37.4571 38.9071C37.3914 39.696 36.7997 40.1562 35.8793 40.1562Z" fill="black"/>
<path d="M42.1918 40.1562C41.6001 40.1562 41.0084 39.959 40.5482 39.5645L40.4824 39.4988L40.9426 38.9071L41.0084 38.9728C41.4028 39.3015 41.7973 39.433 42.2575 39.433C42.7835 39.433 42.915 39.17 42.915 38.9728C42.915 38.6441 42.7177 38.5126 41.9945 38.3811C41.0741 38.1181 40.6139 37.9209 40.6139 37.132C40.6139 36.4088 41.2056 35.8828 42.0603 35.8828C42.5862 35.8828 43.1122 36.0143 43.5067 36.343L43.5724 36.4088L43.1779 37.0005L43.1122 36.9347C42.7177 36.6718 42.389 36.606 42.0603 36.606C41.6658 36.606 41.4686 36.8032 41.4686 37.0662C41.4686 37.3949 41.7316 37.5264 42.4548 37.7237C43.3752 37.9866 43.7696 38.3154 43.7696 38.9728C43.7039 39.696 43.1122 40.1562 42.1918 40.1562Z" fill="black"/>
<path d="M47.91 35.9485H47.1211V40.0904H47.91V35.9485Z" fill="black"/>
<path d="M53.4996 40.2219C52.2505 40.2219 51.3301 39.3015 51.3301 38.1181C51.3301 36.9347 52.3162 35.9485 53.5654 35.9485C54.8145 35.9485 55.735 36.8689 55.735 38.0523C55.6692 39.2357 54.7488 40.2219 53.4996 40.2219ZM53.4996 36.6059C52.7107 36.6059 52.1848 37.1976 52.1848 37.9866C52.1848 38.7755 52.7765 39.4329 53.5654 39.4329C54.3543 39.4329 54.8803 38.8412 54.8803 38.0523C54.8145 37.2634 54.2228 36.6059 53.4996 36.6059Z" fill="black"/>
<path d="M61.7183 40.0904L59.5487 37.2634V40.0904H58.7598V35.9485H59.4829L61.5868 38.7098V35.9485H62.3757V40.0904H61.7183Z" fill="black"/>
<path d="M68.8829 40.0904L68.4884 39.1042H66.5818L66.1874 40.0904H65.3984L67.1735 35.9485H67.9625L69.7376 40.0904H68.8829ZM68.2255 38.4468L67.568 36.8032L66.9106 38.4468H68.2255Z" fill="black"/>
<path d="M72.7617 40.0904V35.9485H73.5507V39.3672H75.7202V40.0904H72.7617Z" fill="black"/>
<path d="M92.0259 14.0557H90.9082V43.5092H92.0259V14.0557Z" fill="black"/>
<path d="M105.635 30.7548C105.635 25.3637 109.711 21.7478 114.905 21.7478C118.784 21.7478 120.953 23.8516 122.202 26.0212L119.047 27.5333C118.323 26.1527 116.746 24.9693 114.905 24.9693C111.749 24.9693 109.448 27.4018 109.448 30.6891C109.448 33.9763 111.749 36.4088 114.905 36.4088C116.68 36.4088 118.258 35.2912 119.047 33.8448L122.268 35.3569C121.019 37.5265 118.784 39.6303 114.97 39.6303C109.711 39.7618 105.635 36.0801 105.635 30.7548Z" fill="black"/>
<path d="M123.977 37.5919C123.977 36.4085 124.963 35.488 126.08 35.488C127.264 35.488 128.184 36.4742 128.184 37.5919C128.184 38.7095 127.198 39.6957 126.08 39.6957C124.897 39.7614 123.977 38.7753 123.977 37.5919Z" fill="black"/>
<path d="M133.773 39.4328V22.0105H137.455V36.2113H144.884V39.4328H133.773Z" fill="black"/>
<path d="M147.514 37.5919C147.514 36.4085 148.5 35.488 149.618 35.488C150.801 35.488 151.721 36.4742 151.721 37.5919C151.721 38.7095 150.735 39.6957 149.618 39.6957C148.434 39.7614 147.514 38.7753 147.514 37.5919Z" fill="black"/>
<path d="M156.52 32.4639V21.9448H160.267V32.3325C160.267 34.765 161.713 36.4086 164.409 36.4086C167.104 36.4086 168.485 34.765 168.485 32.3325V21.9448H172.298V32.3982C172.298 36.7373 169.734 39.6958 164.409 39.6958C159.084 39.6958 156.52 36.8031 156.52 32.4639Z" fill="black"/>
<path d="M174.404 37.5919C174.404 36.4085 175.39 35.488 176.508 35.488C177.692 35.488 178.612 36.4742 178.612 37.5919C178.612 38.7095 177.626 39.6957 176.508 39.6957C175.39 39.7614 174.404 38.7753 174.404 37.5919Z" fill="black"/>
<path d="M184.266 39.4329V21.9448H193.47C196.823 21.9448 198.466 24.0487 198.466 26.4155C198.466 28.585 197.086 30.0971 195.442 30.4259C197.283 30.6888 198.795 32.5297 198.795 34.6993C198.795 37.329 197.02 39.4329 193.733 39.4329H184.266ZM194.653 27.0729C194.653 25.9552 193.864 25.1663 192.615 25.1663H187.947V28.9795H192.615C193.864 28.9795 194.653 28.1906 194.653 27.0729ZM194.982 34.239C194.982 33.1214 194.193 32.201 192.747 32.201H187.947V36.2771H192.747C194.127 36.2114 194.982 35.4882 194.982 34.239Z" fill="black"/>
<path d="M201.096 37.5919C201.096 36.4085 202.082 35.488 203.2 35.488C204.383 35.488 205.303 36.4742 205.303 37.5919C205.303 38.7095 204.317 39.6957 203.2 39.6957C202.082 39.7614 201.096 38.7753 201.096 37.5919Z" fill="black"/>
</svg>
