<svg width="219" height="40" viewBox="0 0 219 40" fill="none" xmlns="http://www.w3.org/2000/svg">
<path d="M0.666016 19.9992C0.666016 8.23446 9.56127 0.343506 20.8956 0.343506C29.3604 0.343506 34.095 4.93461 36.821 9.66919L29.9343 12.969C28.3561 9.95614 24.9128 7.37365 20.8956 7.37365C14.0089 7.37365 8.98737 12.6821 8.98737 19.8557C8.98737 27.0293 14.0089 32.3378 20.8956 32.3378C24.7693 32.3378 28.2126 29.8988 29.9343 26.7424L36.9644 30.0422C34.2384 34.7768 29.3604 39.3679 21.039 39.3679C9.56128 39.6548 0.666016 31.6204 0.666016 19.9992Z" fill="black"/>
<path d="M40.6943 34.92C40.6943 32.3375 42.8464 30.3289 45.2854 30.3289C47.8679 30.3289 49.8765 32.4809 49.8765 34.92C49.8765 37.359 47.7245 39.5111 45.2854 39.5111C42.7029 39.6545 40.6943 37.5025 40.6943 34.92Z" fill="black"/>
<path d="M62.0723 38.9376V0.91748H70.1067V31.9074H86.319V38.9376H62.0723Z" fill="black"/>
<path d="M92.0566 34.92C92.0566 32.3375 94.2087 30.3289 96.6478 30.3289C99.2303 30.3289 101.239 32.4809 101.239 34.92C101.239 37.359 99.0868 39.5111 96.6478 39.5111C94.0653 39.6545 92.0566 37.5025 92.0566 34.92Z" fill="black"/>
<path d="M111.713 23.7292V0.773682H119.891V23.4423C119.891 28.7507 123.047 32.3375 128.93 32.3375C134.812 32.3375 137.825 28.7507 137.825 23.4423V0.773682H146.146V23.5857C146.146 33.0549 140.551 39.5111 128.93 39.5111C117.308 39.5111 111.713 33.1984 111.713 23.7292Z" fill="black"/>
<path d="M150.738 34.92C150.738 32.3375 152.89 30.3289 155.329 30.3289C157.912 30.3289 159.92 32.4809 159.92 34.92C159.92 37.359 157.768 39.5111 155.329 39.5111C152.89 39.6545 150.738 37.5025 150.738 34.92Z" fill="black"/>
<path d="M172.259 38.9372V0.773682H192.345C199.662 0.773682 203.249 5.36479 203.249 10.5298C203.249 15.2644 200.236 18.5642 196.649 19.2816C200.666 19.8554 203.966 23.8727 203.966 28.6072C203.966 34.3461 200.092 38.9372 192.919 38.9372H172.259ZM194.927 11.9645C194.927 9.52548 193.206 7.8038 190.48 7.8038H180.293V16.1252H190.48C193.206 16.1252 194.927 14.4035 194.927 11.9645ZM195.645 27.6029C195.645 25.1639 193.923 23.1553 190.767 23.1553H180.293V32.0506H190.767C193.78 31.9071 195.645 30.3289 195.645 27.6029Z" fill="black"/>
<path d="M208.987 34.92C208.987 32.3375 211.139 30.3289 213.578 30.3289C216.161 30.3289 218.17 32.4809 218.17 34.92C218.17 37.359 216.017 39.5111 213.578 39.5111C211.139 39.6545 208.987 37.5025 208.987 34.92Z" fill="black"/>
</svg>
