<svg width="206" height="44" viewBox="0 0 206 44" fill="none" xmlns="http://www.w3.org/2000/svg">
<path d="M53 22.007C53 16.6159 57.076 13 62.27 13C66.149 13 68.318 15.1038 69.567 17.2734L66.412 18.7855C65.688 17.4049 64.111 16.2215 62.27 16.2215C59.114 16.2215 56.813 18.654 56.813 21.9413C56.813 25.2285 59.114 27.661 62.27 27.661C64.045 27.661 65.623 26.5434 66.412 25.097L69.633 26.6091C68.384 28.7787 66.149 30.8825 62.335 30.8825C57.076 31.014 53 27.3323 53 22.007Z" fill="black"/>
<path d="M71.3418 28.8441C71.3418 27.6607 72.3278 26.7402 73.4448 26.7402C74.6288 26.7402 75.5488 27.7264 75.5488 28.8441C75.5488 29.9617 74.5628 30.9479 73.4448 30.9479C72.2618 31.0136 71.3418 30.0275 71.3418 28.8441Z" fill="black"/>
<path d="M81.1387 30.6855V13.2632H84.8207V27.464H92.2497V30.6855H81.1387Z" fill="black"/>
<path d="M94.8789 28.8441C94.8789 27.6607 95.8649 26.7402 96.9829 26.7402C98.1659 26.7402 99.0859 27.7264 99.0859 28.8441C99.0859 29.9617 98.0999 30.9479 96.9829 30.9479C95.7989 31.0136 94.8789 30.0275 94.8789 28.8441Z" fill="black"/>
<path d="M103.885 23.7164V13.1973H107.632V23.585C107.632 26.0175 109.078 27.6611 111.774 27.6611C114.469 27.6611 115.85 26.0175 115.85 23.585V13.1973H119.663V23.6507C119.663 27.9898 117.099 30.9483 111.774 30.9483C106.449 30.9483 103.885 28.0556 103.885 23.7164Z" fill="black"/>
<path d="M121.77 28.8441C121.77 27.6607 122.756 26.7402 123.874 26.7402C125.058 26.7402 125.978 27.7264 125.978 28.8441C125.978 29.9617 124.992 30.9479 123.874 30.9479C122.756 31.0136 121.77 30.0275 121.77 28.8441Z" fill="black"/>
<path d="M131.631 30.6854V13.1973H140.835C144.188 13.1973 145.831 15.3012 145.831 17.668C145.831 19.8375 144.451 21.3496 142.807 21.6784C144.648 21.9413 146.16 23.7822 146.16 25.9518C146.16 28.5815 144.385 30.6854 141.098 30.6854H131.631ZM142.018 18.3254C142.018 17.2077 141.229 16.4188 139.98 16.4188H135.312V20.232H139.98C141.229 20.232 142.018 19.4431 142.018 18.3254ZM142.347 25.4915C142.347 24.3739 141.558 23.4535 140.112 23.4535H135.312V27.5296H140.112C141.492 27.4639 142.347 26.7407 142.347 25.4915Z" fill="black"/>
<path d="M148.461 28.8441C148.461 27.6607 149.447 26.7402 150.565 26.7402C151.748 26.7402 152.668 27.7264 152.668 28.8441C152.668 29.9617 151.682 30.9479 150.565 30.9479C149.447 31.0136 148.461 30.0275 148.461 28.8441Z" fill="black"/>
</svg>
