<svg width="182" height="230" viewBox="0 0 182 230" fill="none" xmlns="http://www.w3.org/2000/svg">
<path d="M111.367 177.311C111.497 177.122 111.177 177.529 111.367 177.311V177.311ZM106.132 172.161C106.149 172.344 106.165 172.528 106.181 172.711C105.975 172.746 105.768 172.78 105.768 172.78C105.752 172.597 105.736 172.414 105.719 172.23C105.719 172.23 105.926 172.196 106.132 172.161ZM104.436 170.994C104.42 170.811 104.246 171.212 104.436 170.994V170.994ZM107.495 171.449C107.017 170.785 106.316 171.628 106.044 170.929C106.68 171.009 106.425 170.493 106.409 170.31C107.044 170.389 107.859 170.83 107.495 171.449ZM104.761 169.693C104.752 169.825 105.19 169.807 104.761 169.693V169.693ZM104.903 168.925C105.142 169.257 104.729 169.327 104.761 169.693C104.348 169.762 104.251 168.663 104.903 168.925ZM103.278 168.807C103.121 169.392 103.724 169.104 103.773 169.654C103.144 169.89 102.675 169.094 103.278 168.807ZM104.903 168.925C104.847 168.06 106.272 168.528 106.13 169.296C105.571 169.371 105.843 168.414 104.903 168.925ZM94.2448 169.987C94.4513 169.952 94.6741 170.101 94.8806 170.066C94.8968 170.25 94.913 170.433 94.9293 170.616C94.7228 170.651 94.3097 170.72 94.1032 170.755C94.0707 170.388 94.261 170.17 94.2448 169.987ZM102.404 168.396C103.088 169.025 101.615 168.007 102.404 168.396V168.396ZM102.919 166.877C104.081 166.514 104.163 167.431 104.815 167.694C104.863 168.244 104.689 168.645 103.838 168.732C104.576 167.362 103.016 167.977 102.919 166.877ZM100.703 166.467C100.861 165.882 102.121 166.62 101.387 167.096C101.294 166.758 100.545 167.051 100.703 166.467ZM102.462 165.502C102.701 165.834 102.956 166.349 102.121 166.62C101.684 166.191 102.288 165.903 102.462 165.502ZM100.392 165.086C101.016 165.744 99.4242 165.993 100.392 165.086V165.086ZM101.58 164.775C101.422 165.36 102.411 165.399 101.652 165.824C101.429 165.675 100.995 164.799 101.58 164.775ZM99.5101 164.36C99.3036 164.394 99.097 164.429 99.0808 164.246C99.3477 164.182 99.4939 164.176 99.5101 164.36ZM101.146 163.899C101.559 163.83 101.972 163.761 101.988 163.944C101.547 164.409 101.325 164.26 101.146 163.899ZM98.9161 161.204C99.1783 162.034 98.1504 161.313 98.9161 161.204V161.204ZM89.922 163.065C89.3511 163.719 90.9754 163.837 89.8198 164.515C89.7549 163.782 88.7988 164.109 88.5436 163.594C89.1632 163.49 88.6944 162.694 89.2978 162.407C89.2699 162.802 89.6992 162.916 89.922 163.065ZM95.7696 159.517C96.3892 159.413 96.6282 159.745 96.6769 160.295C96.0318 160.348 95.7928 160.016 95.7696 159.517ZM98.9161 161.204C97.4427 160.185 97.6005 159.601 96.8765 158.29C97.7026 158.151 97.691 158.73 98.3106 158.626C98.0506 160.66 100.072 160.526 100.768 162.233C100.8 162.599 100.371 162.485 100.404 162.852C100.659 163.367 101.408 163.074 101.111 163.98C100.888 163.831 100.459 163.717 99.9162 163.975C100.032 163.156 100.111 161.208 98.9161 161.204ZM85.6269 159.06C85.6269 159.06 85.4366 159.278 85.6269 159.06V159.06ZM95.5516 156.819C95.7906 157.151 97.0019 157.338 96.3892 157.757C96.2361 157.448 95.0248 157.261 95.5516 156.819ZM94.8393 154.929C94.8555 155.112 95.2685 155.043 95.4751 155.008C95.7303 155.524 95.308 155.725 94.4819 155.863C94.6815 155.514 94.4262 154.998 94.8393 154.929ZM94.3543 153.95C94.6096 154.465 94.2127 154.718 93.5769 154.638C93.382 154.094 94.0016 153.99 94.3543 153.95ZM93.7464 153.475C93.8113 154.208 92.6975 153.465 93.7464 153.475V153.475ZM93.7464 153.475C93.9529 153.44 93.9367 153.257 93.7464 153.475V153.475ZM82.6591 154.422C82.8657 154.388 82.6754 154.606 82.6591 154.422V154.422ZM82.6591 154.422C81.8168 154.378 82.81 153.523 82.6591 154.422V154.422ZM93.0224 152.164C92.8809 152.932 94.0272 152.386 93.8601 153.103C93.2405 153.206 92.8878 153.247 92.665 153.098C92.6581 152.783 92.4469 152.056 93.0224 152.164ZM92.2404 152.09C92.8646 152.748 91.3656 151.679 92.2404 152.09V152.09ZM90.0175 149.71C90.0662 150.26 90.4793 150.19 90.2959 150.723C89.7343 151.245 89.6045 149.779 90.0175 149.71ZM81.1185 149.806C80.912 149.841 80.912 149.841 80.7055 149.876C80.8957 149.658 80.6892 149.692 80.4827 149.727C80.4664 149.544 80.4502 149.36 80.4502 149.36C81.0791 149.125 81.086 149.44 81.1185 149.806ZM88.7018 148.107C88.9176 147.941 88.4953 148.142 88.7018 148.107V148.107ZM80.9979 148.208C81.0141 148.391 80.8238 148.609 80.6173 148.644C80.5848 148.277 80.1718 148.347 80.1393 147.98C80.6127 147.882 80.6452 148.249 80.9979 148.208ZM89.6069 146.02C89.8784 146.719 90.1243 147.366 90.1127 147.945C90.3192 147.91 90.5095 147.692 90.6998 147.474C90.7879 148.706 93.113 149.637 91.7393 150.928C91.5003 150.596 91.6836 150.063 90.9085 150.304C90.8366 149.256 90.4074 149.142 90.9782 148.488C89.7669 148.3 89.0917 147.539 88.7715 146.291C89.2101 146.273 89.1776 145.906 89.6069 146.02ZM87.3468 145.823C87.5533 145.788 87.1565 146.04 87.3468 145.823V145.823ZM87.5742 143.422C87.8457 144.12 88.3957 144.177 88.6347 144.509C87.4721 144.871 89.3354 145.322 88.5 145.592C88.4838 145.409 88.2773 145.443 88.0707 145.478C88.2216 144.578 87.5696 144.315 87.1844 143.989C87.6229 143.972 87.3677 143.456 87.5742 143.422ZM77.5289 144.064C76.9975 145.4 76.8444 143.435 77.5289 144.064V144.064ZM86.8619 141.532C86.7041 142.116 87.3237 142.012 87.1403 142.546C86.1564 143.269 86.0196 141.487 86.8619 141.532ZM82.5575 140.97C82.764 140.935 82.5737 141.153 82.5575 140.97V140.97ZM85.4024 137.832C85.0613 138.95 86.0429 138.674 86.0823 139.355C85.6693 139.425 85.2562 139.494 84.9035 139.535C85.0451 138.767 84.8154 138.303 84.5764 137.971C84.7829 137.936 85.1959 137.867 85.4024 137.832ZM81.6249 133.517C81.8801 134.032 82.3326 134.645 81.5065 134.783C81.8963 134.216 80.6526 133.661 81.6249 133.517ZM83.0217 136.036C83.3141 134.368 81.9126 134.399 82.0472 133.316C83.4487 133.285 85.124 136.818 83.4835 136.517C84.2933 136.195 83.2282 136.002 83.0217 136.036ZM81.1121 131.277C82.0519 130.766 82.6505 133.029 81.8244 133.167C81.5692 132.652 81.5483 131.706 81.1121 131.277ZM81.2374 130.326C81.0309 130.361 80.8569 130.762 80.6179 130.43C80.6016 130.247 81.2212 130.143 81.2374 130.326ZM73.218 128.285C72.8211 128.537 72.7887 128.171 72.7724 127.987C73.1948 127.786 73.2017 128.101 73.218 128.285ZM68.533 124.847C68.533 124.847 68.3427 125.065 68.533 124.847V124.847ZM67.9994 123.318C68.0156 123.501 68.2546 123.833 67.8416 123.902C67.8416 123.902 67.8253 123.719 67.6188 123.754C67.6026 123.57 67.5701 123.204 67.9994 123.318ZM68.786 122.498C68.9322 122.492 68.5958 122.715 68.786 122.498V122.498ZM66.9437 119.681C66.7859 120.265 67.6189 120.442 67.0156 120.729C66.8346 120.815 66.3403 119.968 66.9437 119.681ZM64.4517 112.843C64.6675 112.677 64.2452 112.878 64.4517 112.843V112.843ZM65.3799 111.255C65.2059 111.656 64.9669 111.324 65.3799 111.255V111.255ZM64.0202 109.864C64.0364 110.047 64.0364 110.047 64.0527 110.231C63.8461 110.265 63.6396 110.3 63.4331 110.335C63.4169 110.151 63.4169 110.151 63.4006 109.968C63.6675 109.905 63.874 109.87 64.0202 109.864ZM71.0373 107.925C70.8633 108.326 71.1023 108.658 70.6799 108.859C70.6312 108.309 70.202 108.195 71.0373 107.925ZM65.5657 105.307C65.756 105.089 65.582 105.491 65.5657 105.307V105.307ZM69.6383 102.541C69.687 103.091 69.7032 103.274 69.0744 103.51C69.2577 102.977 68.7959 102.496 69.6383 102.541ZM65.4057 103.027C65.6447 103.359 65.4707 103.76 65.0576 103.83C65.0414 103.646 64.6121 103.532 64.7862 103.131C65.0275 103.016 65.1737 103.01 65.4057 103.027ZM62.3705 103.071C62.3868 103.254 62.403 103.438 62.4193 103.621C62.2127 103.656 62.0062 103.69 61.7997 103.725C61.7834 103.542 61.7672 103.358 61.751 103.175C61.9575 103.14 62.164 103.106 62.3705 103.071ZM62.9994 102.835C63.2222 102.984 63.2384 103.167 63.4287 102.949C63.4449 103.133 63.4612 103.316 63.4774 103.499C62.8648 103.918 62.5864 102.905 62.9994 102.835ZM60.9807 97.5552C60.3728 97.0804 61.8555 97.9666 60.9807 97.5552V97.5552ZM64.1204 95.6148C63.7723 96.4173 63.4196 94.8021 64.1204 95.6148V95.6148ZM71.6292 104.905C71.1674 104.424 71.5572 103.856 71.0955 103.375C70.4922 103.663 70.8031 105.043 71.6292 104.905ZM69.882 100.323C69.8982 100.506 70.3113 100.437 70.5178 100.403C70.5016 100.219 70.0885 100.288 69.882 100.323ZM69.4389 96.2672C68.9609 95.6031 68.875 97.2362 69.4389 96.2672V96.2672ZM68.7916 93.4548C70.265 94.4728 69.7985 96.5417 70.6849 98.0303C70.0978 98.5009 69.6802 97.8081 69.3321 98.6107C69.9516 98.5068 69.6035 99.3093 70.0166 99.2401C70.1906 98.8388 70.3972 98.8042 70.5875 98.5862C71.7615 100.957 71.8681 105.237 73.439 107.355C72.8195 107.458 73.2975 108.122 72.6617 108.043C71.8797 107.97 72.3183 106.296 71.3135 106.074C71.3622 106.624 71.5688 106.589 71.6012 106.956C70.5849 107.312 70.9052 105.249 70.1672 106.619C69.4989 106.173 70.3181 105.72 70.5083 105.502C70.0466 105.021 70.2531 104.986 70.1974 104.121C69.7844 104.191 69.8169 104.557 69.1973 104.661C69.1417 103.796 70.1812 103.938 70.3042 103.434C69.0604 102.879 71.244 102.923 70.8194 101.915C69.0442 102.696 69.9655 100.793 68.9166 100.783C69.1556 101.115 67.9165 101.322 68.2808 100.703C68.2321 100.153 69.6662 100.49 69.2578 99.665C68.8447 99.7342 68.4317 99.8035 68.2414 100.021C69.1859 98.6166 68.4619 97.3054 68.158 96.2401C67.7449 96.3094 68.0002 96.8247 67.3644 96.7452C67.5059 95.9773 66.8864 96.0812 67.0697 95.5482C67.673 95.2609 67.7055 95.6276 68.0582 95.587C68.6825 94.5894 67.629 93.8172 68.7916 93.4548ZM67.5965 93.4505C67.4549 94.2184 68.0815 94.4297 67.0489 94.6028C67.0257 94.1044 66.9769 93.5544 67.5965 93.4505ZM63.5705 93.9023C63.4289 94.6702 62.9556 93.1124 63.5705 93.9023V93.9023ZM66.7891 90.0138C67.0119 90.1625 67.2346 90.3112 67.0768 90.8958C66.2252 90.9828 66.144 90.0661 66.7891 90.0138ZM58.858 80.9251C59.0645 80.8905 58.6677 81.143 58.858 80.9251V80.9251ZM58.7931 80.1918C58.7374 79.3267 59.1133 81.4404 58.7931 80.1918V80.1918ZM58.6724 78.5934C58.6771 77.6996 58.9926 79.842 58.6724 78.5934V78.5934ZM58.4056 77.0009C58.1435 76.1705 58.6655 78.2783 58.4056 77.0009V77.0009ZM58.3385 73.4029C58.3547 73.5862 58.3709 73.7695 58.3872 73.9529C58.1807 73.9875 58.1806 73.9875 57.9741 74.0221C57.9579 73.8388 57.9417 73.6555 57.9254 73.4721C58.1319 73.4375 58.1319 73.4375 58.3385 73.4029ZM58.3525 70.7215C58.3849 71.0881 58.624 71.4201 57.9881 71.3407C58.016 70.9453 58.1459 70.7561 58.3525 70.7215ZM58.1506 69.8623C58.5915 71.0535 57.118 70.0354 58.1506 69.8623V69.8623ZM58.0694 68.9457C57.9441 69.8969 57.8072 68.1152 58.0694 68.9457V68.9457ZM57.9651 67.5306C57.9975 67.8973 58.45 68.5098 57.8304 68.6137C57.9975 67.8973 57.1552 67.8525 57.9651 67.5306ZM58.0347 65.7143C58.0347 65.7143 57.6217 65.7836 57.6054 65.6002C57.812 65.5656 58.0185 65.531 58.0347 65.7143ZM57.7935 62.5175C57.826 62.8842 58.1531 64.4479 57.6751 63.7839C57.6681 63.4688 57.6079 61.8417 57.7935 62.5175ZM58.0743 59.7728C57.7866 58.8908 58.3087 60.9986 58.0743 59.7728V59.7728ZM57.9747 55.8081C57.7125 54.9776 58.2949 57.0567 57.9747 55.8081V55.8081ZM58.2811 51.4591C58.0746 51.4937 58.3136 51.8257 58.2811 51.4591V51.4591ZM111.119 180.423C110.304 179.982 111.803 181.052 111.119 180.423V180.423ZM108.968 180.746C108.919 180.196 108.506 180.265 107.947 180.34C107.951 181.102 108.571 180.999 108.968 180.746ZM106.951 178.331C107.158 178.296 106.968 178.514 106.951 178.331V178.331ZM108.973 178.196C109.13 177.612 108.511 177.716 108.495 177.532C107.9 177.688 108.369 178.484 108.973 178.196ZM106.657 177.134C107.151 177.981 108.026 176.737 106.657 177.134V177.134ZM106.808 176.234C106.791 176.05 106.569 175.902 106.156 175.971C106.232 176.126 106.395 176.303 106.808 176.234ZM104.733 175.056C104.749 175.239 104.956 175.205 105.162 175.17C105.086 175.016 104.879 175.05 104.733 175.056ZM102.68 174.824C102.712 175.19 103.109 174.938 103.125 175.121C103.032 174.783 102.902 174.972 102.68 174.824ZM101.44 175.031C101.255 174.356 101.315 175.983 101.44 175.031V175.031ZM99.2568 174.988C98.9946 174.158 99.1315 175.939 99.2568 174.988V174.988ZM97.9296 173.964C98.1199 173.746 97.7393 174.182 97.9296 173.964V173.964ZM97.4957 173.088C97.4794 172.905 97.4632 172.722 97.4632 172.722C97.2567 172.756 97.0501 172.791 96.8436 172.825C96.8436 172.825 96.8599 173.009 96.8761 173.192C97.0826 173.157 97.2891 173.123 97.4957 173.088ZM98.396 171.895C98.4123 172.079 98.6188 172.044 98.8253 172.009C98.8091 171.826 98.6026 171.861 98.396 171.895ZM102.884 171.924C102.645 171.592 102.796 170.693 102.046 170.986C102.415 171.128 101.867 172.281 102.884 171.924ZM101.378 170.54C102.188 170.218 101.106 169.841 101.099 169.526C100.134 169.985 101.345 170.173 101.378 170.54ZM100.236 168.536C100.427 168.318 100.014 168.387 100.236 168.536C100.269 168.902 100.605 168.678 100.236 168.536ZM96.2102 168.987C96.4005 168.77 96.02 169.205 96.2102 168.987V168.987ZM99.7745 168.055C99.9903 167.889 99.568 168.09 99.7745 168.055V168.055ZM96.9111 168.144C96.9111 168.144 96.7811 168.334 96.9111 168.144V168.144ZM94.1729 168.938C94.3307 168.354 93.9176 168.423 93.9107 168.108C93.4559 167.942 93.5695 169.226 94.1729 168.938ZM98.0458 166.522C98.062 166.705 98.4751 166.636 98.6816 166.601C98.6654 166.418 98.2523 166.487 98.0458 166.522ZM95.3192 168.393C95.9063 167.922 94.644 167.632 94.7855 166.864C93.8133 167.008 95.2867 168.026 95.3192 168.393ZM93.3794 166.132C93.3956 166.315 93.6021 166.281 93.8086 166.246C93.7576 166.143 93.5859 166.097 93.3794 166.132ZM95.5351 164.915C95.7741 165.247 95.9481 164.845 96.1547 164.811C95.8809 164.559 95.6813 164.909 95.5351 164.915ZM96.6258 163.504C96.4192 163.538 96.403 163.355 96.1965 163.39C95.7672 163.276 96.0456 164.29 96.6583 163.871C96.6583 163.871 96.642 163.687 96.6258 163.504ZM91.7134 162.467C91.0288 161.838 91.8502 164.249 91.7134 162.467V162.467ZM90.6205 161.013C90.6042 160.83 90.3977 160.864 90.3652 160.498C89.9684 160.75 89.7781 160.968 89.8106 161.335C90.1981 161.214 90.2074 161.082 90.6205 161.013ZM88.8128 161.428C89.4324 161.324 88.9474 160.345 88.3186 160.581C88.1608 161.165 88.7804 161.061 88.8128 161.428ZM91.131 160.388C90.9199 159.661 90.9801 161.288 91.131 160.388V160.388ZM90.9199 159.661C90.9036 159.477 90.6809 159.329 90.6484 158.962C90.4419 158.997 90.2678 159.398 90.3003 159.765C90.5068 159.73 90.7133 159.695 90.9199 159.661ZM89.697 160.052C89.8385 159.284 89.4417 159.536 89.4185 159.038C88.6365 158.964 89.154 160.31 89.697 160.052ZM92.6788 158.696C93.0756 158.443 92.6463 158.329 92.6138 157.963C92.217 158.215 92.456 158.547 92.6788 158.696ZM89.3977 158.093C89.7945 157.84 89.3652 157.726 89.3327 157.359C88.9615 157.663 89.3815 157.909 89.3977 158.093ZM88.3094 157.401C88.1029 157.435 88.1029 157.435 88.0866 157.252C87.6573 157.138 87.7293 158.186 88.3581 157.951C88.3419 157.767 88.3256 157.584 88.3094 157.401ZM88.8965 156.93C88.4278 156.134 88.5391 157.864 88.8965 156.93V156.93ZM87.908 156.891C87.2072 156.078 87.5599 157.694 87.908 156.891V156.891ZM87.0169 156.296C87.0332 156.48 87.4462 156.411 87.6527 156.376C87.6365 156.193 87.2235 156.262 87.0169 156.296ZM90.4327 155.817C90.623 155.599 90.2424 156.035 90.4327 155.817V155.817ZM86.5923 155.289C85.3973 155.284 87.8755 156.525 86.6086 155.472L86.5923 155.289ZM87.7711 155.11C87.7549 154.926 87.7386 154.743 87.7062 154.376C86.8894 154.383 86.9775 155.615 87.7711 155.11ZM86.7339 154.521C86.4879 153.873 86.6085 155.472 86.7339 154.521V154.521ZM89.9269 153.892C89.4326 153.045 89.5695 154.827 89.9269 153.892V153.892ZM85.6294 153.645C86.0262 153.393 85.5969 153.279 85.5807 153.095C85.1839 153.348 85.6131 153.462 85.6294 153.645ZM84.9008 151.572C84.4483 150.96 84.5689 152.558 84.9008 151.572V151.572ZM87.5299 151.913C87.7364 151.878 87.6877 151.328 87.6807 151.013C87.1122 151.22 87.1447 151.587 87.5299 151.913ZM84.3996 150.41C84.8127 150.34 84.5737 150.008 84.764 149.791C84.3347 149.676 84.1606 150.078 84.1769 150.261C84.3834 150.226 84.3834 150.226 84.3996 150.41ZM83.736 149.07C83.7847 149.62 84.7245 149.109 84.3069 148.416C83.8938 148.485 84.0887 149.029 83.736 149.07ZM83.9379 149.929C82.7428 149.925 83.866 148.881 82.845 148.475C82.4969 149.278 83.2371 150.772 84.0353 151.029C83.8242 150.302 83.8404 150.485 83.9379 149.929ZM85.3256 145.957C85.5321 145.922 85.3419 146.14 85.3256 145.957V145.957ZM82.237 148C82.1813 147.135 81.9261 146.62 81.7312 146.076C81.5131 146.689 80.9816 148.025 82.237 148ZM82.729 145.983C82.8706 145.215 82.251 145.319 82.2441 145.004C81.6152 145.239 82.1002 146.219 82.729 145.983ZM83.5645 144.057C83.5482 143.873 83.5482 143.873 83.532 143.69C83.3255 143.725 83.1189 143.759 83.1189 143.759L83.1514 144.126C83.1514 144.126 83.3579 144.091 83.5645 144.057ZM80.1255 144.038C80.093 143.671 79.9028 143.889 80.1255 144.038C80.6035 144.702 80.6313 145.963 81.6802 145.973C81.5665 144.689 80.9841 144.266 80.1255 144.038ZM79.1927 144.864C79.97 144.176 78.5615 143.891 78.6706 142.756C77.4802 143.514 79.3597 144.148 79.1927 144.864ZM81.8427 142.838C82.2557 142.769 82.0005 142.254 82.4136 142.185C82.3973 142.001 81.9843 142.071 81.7777 142.105C81.8195 142.34 81.852 142.707 81.8427 142.838ZM81.1256 143.498C82.272 142.953 80.8542 142.8 81.0213 142.083C80.2114 142.405 80.8704 142.983 81.1256 143.498ZM84.6343 141.701C84.8408 141.666 84.444 141.919 84.6343 141.701V141.701ZM79.9887 142.256C79.3366 141.994 79.6778 140.876 78.7217 141.204C79.1835 141.684 79.1904 141.999 78.8261 142.619C79.4619 142.698 79.8587 142.446 79.9887 142.256ZM80.1627 141.855C80.766 141.568 80.2973 140.772 80.0908 140.807C79.7381 140.847 80.1465 141.672 80.1627 141.855ZM85.2769 145.407C84.7155 142.617 83.6016 141.874 82.46 139.87C82.047 139.939 82.3185 140.638 81.8799 140.655C83.3627 141.542 83.9033 143.386 84.7827 144.559C84.1956 145.03 84.0215 145.431 84.6643 145.826C84.8801 145.659 84.8476 145.293 85.2769 145.407ZM79.2044 139.318C79.2044 139.318 78.9886 139.484 79.2044 139.318V139.318ZM78.8308 140.069C78.9724 139.301 78.3366 139.222 78.1231 138.941C77.7866 139.165 78.2716 140.144 78.8308 140.069C78.8308 140.069 78.8471 140.252 78.6405 140.287C78.673 140.654 79.0861 140.584 78.912 140.986C79.5316 140.882 79.4829 140.332 80.0583 140.44C80.0421 140.257 79.8193 140.108 79.7869 139.741C79.4179 139.599 79.4504 139.965 78.8308 140.069ZM82.0517 139.045C82.0192 138.679 82.0029 138.495 81.7802 138.347C81.1606 138.451 81.8451 139.08 81.8451 139.08L82.0517 139.045C81.9008 139.945 82.8337 139.119 82.0517 139.045ZM78.151 138.546C77.9282 138.397 77.912 138.214 77.8957 138.031C77.4827 138.1 77.2762 138.134 77.0696 138.169C77.0859 138.352 77.1021 138.536 77.1183 138.719C77.5314 138.65 77.7379 138.615 78.151 138.546ZM80.3299 137.827C80.3392 137.695 80.1396 138.045 80.3299 137.827V137.827ZM79.3135 138.183L78.6452 137.737C78.2322 137.807 78.2809 138.357 78.5037 138.505C78.7102 138.471 78.9005 138.253 79.3135 138.183ZM78.2369 136.913C78.4271 136.695 78.0466 137.131 78.2369 136.913V136.913ZM79.4319 136.917C79.4157 136.734 79.3994 136.55 79.3994 136.55C79.1929 136.585 78.9864 136.62 78.9864 136.62L79.0189 136.986C79.0189 136.986 79.2254 136.952 79.4319 136.917ZM75.0045 136.86C75.0369 137.226 75.4338 136.974 75.6565 137.122C75.5637 136.784 75.2272 137.008 75.0045 136.86ZM82.0494 136.181C81.7779 135.482 81.4693 136.966 82.0494 136.181V136.181ZM76.5476 136.061C75.5637 136.784 77.3945 136.868 77.1672 135.957C76.7796 136.078 76.5801 136.428 76.5476 136.061ZM77.3992 135.974C78.0188 135.87 77.5501 135.075 77.7241 134.673C76.6335 134.428 77.1764 135.826 77.3992 135.974ZM78.4574 134.197C78.1859 133.498 78.3065 135.097 78.4574 134.197V134.197ZM77.0234 133.861C76.9909 133.494 76.7681 133.345 76.7356 132.979C76.5291 133.013 76.3226 133.048 75.9096 133.117C76.1648 133.632 76.4038 133.964 77.0234 133.861ZM75.9305 132.407C75.659 131.708 75.7796 133.306 75.9305 132.407V132.407ZM75.1416 130.362C75.3156 129.961 75.9514 130.04 75.7217 129.576C75.5152 129.611 75.3249 129.829 74.9118 129.898C74.9281 130.082 74.9281 130.082 74.9443 130.265C75.1253 130.179 75.1416 130.362 75.1416 130.362ZM74.4152 131.154C73.9535 130.673 74.4849 129.337 73.8166 128.891C73.6426 129.293 73.2365 129.677 73.0787 130.261C74.1716 131.715 74.689 133.061 75.3688 134.584C75.2273 135.352 74.733 134.505 74.3966 134.729C74.8978 135.891 75.7981 134.699 76.6892 135.293C76.8075 134.027 75.819 133.988 75.1508 133.542C75.9281 132.853 74.4871 132.202 75.0139 131.76C74.9489 131.027 75.4432 131.874 75.84 131.622C75.3782 131.141 76.1881 130.819 75.5616 130.608C74.9838 130.947 75.42 131.376 74.4152 131.154ZM78.678 128.169C79.0911 128.1 79.0586 127.733 79.0517 127.418C78.801 127.665 78.6711 127.854 78.678 128.169ZM74.9931 127.503C75.0094 127.687 75.1997 127.469 75.4224 127.617C75.3459 127.463 75.1997 127.469 74.9931 127.503ZM73.218 128.285C74.174 127.957 74.109 128.879 74.2622 129.189C74.8655 128.901 74.5708 127.704 74.1415 127.59C73.1576 128.313 73.2505 126.995 72.8908 126.721C72.7724 127.987 71.6471 126.167 71.5449 127.616C73.1205 127.185 71.8558 128.997 73.0671 129.184C73.4453 129.195 73.2504 128.651 73.218 128.285ZM73.8631 126.576C74.0534 126.359 73.6566 126.611 73.8631 126.576V126.576ZM73.6775 125.901C73.645 125.534 73.6288 125.351 73.5963 124.984C73.3898 125.019 73.1833 125.053 72.9767 125.088C73.0092 125.455 73.0254 125.638 73.0324 125.953C73.2644 125.97 73.471 125.935 73.6775 125.901ZM72.9442 124.721C72.6821 123.891 72.8189 125.672 72.9442 124.721V124.721ZM73.9165 124.577C73.7147 123.718 73.7912 125.528 73.9165 124.577V124.577ZM77.2023 124.286C77.1698 123.92 77.3764 123.885 77.3439 123.518C76.9308 123.588 76.7568 123.989 76.9958 124.321L77.2023 124.286C77.2186 124.47 77.5713 124.429 77.2023 124.286ZM72.508 124.292C72.6658 123.707 71.552 124.62 71.6936 123.852C71.487 123.887 71.726 124.219 71.313 124.288C72.5242 124.475 71.2433 126.104 71.8513 126.579C72.2481 126.326 72.6611 126.257 72.6379 125.759C71.8629 126 71.726 124.219 72.508 124.292ZM73.6822 123.351C73.42 122.521 73.5406 124.119 73.6822 123.351V123.351ZM70.9163 121.229C70.4383 120.565 71.7261 120.907 71.2899 120.478C70.6703 120.582 70.7028 120.948 69.9208 120.875C70.9743 121.647 70.4428 122.983 71.3246 123.709C70.4939 123.086 71.682 122.775 71.3943 121.893C72.0301 121.972 72.0626 122.339 72.2319 122.831C72.6125 122.395 73.0093 122.143 73.1926 121.61C71.6054 122.62 72.5174 120.849 70.9163 121.229ZM75.766 121.085C76.5272 120.213 75.6617 119.67 75.374 118.788C74.9934 119.224 75.5108 120.57 75.766 121.085ZM69.7074 118.938C69.6911 118.755 69.4846 118.79 69.4684 118.606C69.2619 118.641 69.0553 118.676 68.8488 118.71C68.9416 119.048 69.3547 118.979 69.7074 118.938ZM68.8442 117.948C69.8443 117.408 68.7792 117.215 68.7561 116.717C67.9741 116.643 68.5982 117.301 68.4149 117.834C68.6214 117.8 68.8535 117.816 68.8442 117.948ZM70.5891 119.665C71.9188 118.586 70.5707 116.617 69.7724 116.36C69.2503 117.564 71.1206 118.329 70.5891 119.665ZM70.928 115.683C70.9443 115.866 71.3573 115.797 71.5638 115.762C71.5476 115.579 71.1346 115.648 70.928 115.683ZM68.1481 116.242C69.3269 116.063 68.6471 114.539 68.0113 114.46C67.2176 114.965 68.3152 115.525 68.1481 116.242ZM70.3247 115.97C69.1134 115.782 70.3781 113.97 68.5635 114.07C69.2318 114.516 69.2643 114.882 69.0972 115.599C69.5102 115.53 69.5497 116.211 70.3247 115.97ZM73.3832 113.113C73.6152 113.13 73.3994 113.296 73.3832 113.113V113.113ZM67.9394 113.412C67.7723 114.128 68.9766 114 69.1344 113.416C69.1112 112.917 68.3524 113.342 67.9394 113.412ZM67.9069 113.045C67.8744 112.678 67.6516 112.53 67.6354 112.346C67.2316 112.284 67.3198 113.515 67.9069 113.045ZM69.269 112.333C69.4593 112.115 69.0787 112.551 69.269 112.333V112.333ZM73.0885 111.916L73.056 111.549C72.8495 111.584 72.8495 111.584 72.643 111.618L72.6755 111.985C72.882 111.95 72.882 111.95 73.0885 111.916ZM68.5032 112.443C68.487 112.259 68.4545 111.893 68.4383 111.709C67.7863 111.447 67.9161 112.913 68.5032 112.443ZM66.0204 112.096C66.2594 112.428 66.4334 112.027 66.6399 111.992C66.6237 111.809 66.0041 111.913 66.0204 112.096ZM67.3594 107.574C67.3594 107.574 67.1691 107.792 67.3594 107.574V107.574ZM67.7887 107.688C66.8048 108.411 66.1968 107.936 66.3152 106.67C66.1087 106.705 65.6957 106.774 65.4891 106.809C65.8325 108.556 66.7676 110.594 67.0947 112.158C67.2688 111.757 68.0949 111.618 68.0554 110.936C65.8603 111.472 68.5057 108.684 66.7398 109.334C67.0972 108.399 67.3106 108.68 68.0926 108.753C67.7515 108.215 68.1646 108.146 67.7887 107.688ZM66.4521 106.796C66.2943 107.38 67.3269 107.207 67.2782 106.657C67.0555 106.509 66.4359 106.613 66.4521 106.796ZM68.0324 105.47C68.2714 105.802 68.4454 105.401 68.652 105.367C68.5754 105.212 68.0162 105.287 68.0324 105.47ZM67.6681 106.09C67.8096 105.322 67.2063 105.609 67.3896 105.076C67.1831 105.111 66.7701 105.18 66.5636 105.214C66.777 105.495 66.6262 106.395 67.6681 106.09ZM66.6518 103.134C66.3803 102.436 65.5983 102.362 65.733 101.279C65.3037 101.165 64.8001 102.105 64.5542 101.458C64.8419 102.34 63.9159 106.793 66.4475 106.034C66.3594 104.802 65.6679 103.858 66.6518 103.134ZM65.6819 101.176C65.8235 100.408 65.6332 100.626 65.197 100.197C64.835 100.369 64.7003 101.452 65.6819 101.176ZM65.7353 99.1766C65.9094 98.7753 66.9141 98.9975 66.7192 98.4534C66.0834 98.374 65.5404 98.6325 65.7353 99.1766ZM64.8814 98.0546C64.6424 97.7226 63.6864 98.0503 63.2571 97.9363C63.8975 98.7777 63.7583 99.0987 63.2199 100.119C64.1528 99.2931 63.6817 100.6 64.0831 101.109C64.8605 100.421 65.0113 99.5212 65.1529 98.7533C64.5171 98.6738 64.5983 99.5905 63.9903 99.1156C64.0623 98.5082 64.2363 98.1069 64.8814 98.0546ZM64.2085 96.8465C64.6262 97.5393 65.1414 96.0203 64.2085 96.8465V96.8465ZM62.5448 96.0464C62.4636 95.1298 62.7791 97.2722 62.5448 96.0464V96.0464ZM64.6309 94.9896C64.8861 95.505 65.6032 94.8452 65.4245 94.4845C64.8142 94.4566 65.044 94.9204 64.6309 94.9896ZM66.9213 92.6893C67.5409 92.5854 67.4921 92.0355 67.6755 91.5024C66.9097 91.6122 66.9329 92.1106 66.9213 92.6893ZM64.0997 89.702C64.1159 89.8853 64.529 89.816 64.529 89.816C64.5127 89.6327 64.3062 89.6673 64.0997 89.702ZM65.6591 89.087C66.2624 88.7998 65.7937 88.004 65.5871 88.0386C65.0441 88.2971 65.8331 88.6857 65.6591 89.087ZM66.8425 88.0142C66.5548 87.1322 66.6917 88.9139 66.8425 88.0142V88.0142ZM67.1674 86.7132C66.7544 86.7824 66.5316 86.6337 66.4992 86.2671C66.1024 86.5197 65.7775 87.8207 66.8101 87.6475C66.7614 87.0975 67.1744 87.0283 67.1674 86.7132ZM61.7955 88.0604C62.6378 88.1052 62.7724 87.0222 62.3269 86.7248C61.9046 86.9258 61.7468 87.5104 61.7955 88.0604ZM61.4197 85.9467C61.6749 86.462 62.3919 85.8023 62.2133 85.4415C61.5775 85.3621 61.8327 85.8774 61.4197 85.9467ZM65.4944 86.0449C66.527 85.8717 66.4713 85.0066 66.4226 84.4566C65.5965 84.5952 65.8587 85.4256 65.4944 86.0449ZM65.9609 83.9759C65.9934 84.3426 66.1674 83.9413 66.3739 83.9067C66.3577 83.7234 65.9446 83.7926 65.9609 83.9759ZM66.1117 83.0762C65.8403 82.3776 66.4064 84.2733 66.1117 83.0762V83.0762ZM61.6309 83.3624C61.429 82.5033 61.5056 84.3137 61.6309 83.3624V83.3624ZM62.8699 86.4663C63.4338 85.4973 62.6681 83.9513 62.6079 82.3242C62.0764 83.6598 62.6031 84.8738 62.8699 86.4663ZM65.8078 82.0109C65.8403 82.3776 66.0143 81.9763 66.2208 81.9417C66.2301 81.8099 65.7916 81.8276 65.8078 82.0109ZM61.2225 82.5379C62.2598 83.1268 61.9767 81.351 60.9441 81.5241C60.7608 82.0572 61.7655 82.2794 61.2225 82.5379ZM65.9564 78.2465C65.9239 77.8798 65.5109 77.9491 65.4784 77.5824C64.9354 77.8409 65.6199 78.4703 65.9564 78.2465ZM60.8932 78.1094C61.0834 77.8915 60.7029 78.3274 60.8932 78.1094V78.1094ZM60.443 77.05C61.0788 77.1294 60.8073 76.4308 60.8004 76.1157C60.4036 76.3682 60.4361 76.7349 60.443 77.05ZM60.3386 75.635C61.2715 74.8088 60.3921 73.6353 60.7494 72.701C60.3364 72.7702 60.3526 72.9535 60.1461 72.9882C60.4245 74.0019 60.4733 74.5519 60.3386 75.635ZM60.3898 70.7706C60.1184 70.0719 60.7472 69.8362 60.4757 69.1376C59.6937 69.064 60.3411 70.2206 60.1833 70.8052L60.3898 70.7706C60.2158 71.1718 60.2483 71.5385 60.2714 72.0369C61.26 72.0758 60.8516 71.2513 60.5964 70.7359L60.3898 70.7706ZM59.5227 45.8369C59.054 45.0411 59.1909 46.8228 59.5227 45.8369V45.8369ZM58.2811 51.4591C58.6038 47.2933 58.286 42.2861 60.2075 38.1872C60.1426 37.4539 59.9291 37.1734 59.6901 36.8414C60.6508 35.6198 60.7529 34.1702 60.6323 32.5718C61.7949 32.2094 61.5768 31.1669 61.4956 30.2503C63.735 24.5353 66.6335 19.3981 71.2119 15.2444C72.2329 15.6499 72.5485 14.4807 73.3514 13.8438C76.5513 13.5305 78.1294 9.3403 82.1763 9.83382C82.3271 8.93411 83.7519 9.40219 84.1417 8.83449C84.3645 8.98319 84.6035 9.3152 85.0328 9.42927C86.982 8.24662 87.1907 11.0767 88.0539 12.0669C85.1277 14.2878 82.9116 17.1896 78.7463 17.9624C78.7139 17.5958 78.9204 17.5611 78.9134 17.246C78.0874 17.3845 78.0827 16.6225 77.2729 16.9444C74.8712 17.5145 71.8962 20.8412 70.6593 23.9138C70.302 24.8481 70.3831 25.7647 70.0258 26.6991C69.3528 28.8026 68.095 30.9298 67.6772 33.5487C67.5426 34.6317 67.4405 36.0814 67.1411 37.4339C65.9017 45.9208 65.9665 53.2774 65.8781 60.3247C66.1565 61.3385 66.2701 62.6218 65.9128 63.5561C66.3977 64.5353 65.6528 65.5904 66.5067 66.7123C65.4926 69.9335 67.9893 74.2219 66.6317 77.3518C67.2953 78.6917 67.9102 81.1375 67.3625 82.2898C68.9403 84.7229 68.4529 89.1581 69.5248 92.9783C69.1118 93.0476 69.1605 93.5976 68.3785 93.524C67.7265 93.2613 67.8843 92.6767 66.9607 93.3711C67.1116 92.4714 66.492 92.5753 66.6173 91.624C67.6059 91.6629 67.7637 91.0783 68.3925 90.8426C66.7844 90.9076 68.2394 88.8776 66.8054 88.5413C67.0676 89.3718 66.2415 89.5103 65.8447 89.7629C66.8329 98.0809 69.5198 105.463 70.3944 112.498C71.014 112.394 71.3992 112.72 71.4479 113.27C70.4756 113.414 71.4804 113.636 70.6705 113.958C70.877 113.924 71.0836 113.889 71.4966 113.82C72.2484 116.391 73.2762 118.768 73.7124 122.509C74.1254 122.439 74.093 122.073 74.506 122.004C75.4086 123.675 74.2321 126.719 76.2369 126.402C76.2392 129.266 78.5364 130.593 78.0769 132.977C79.0654 133.016 79.1466 133.932 79.4088 134.763C78.6268 134.689 78.2462 135.125 78.6314 135.451C79.0444 135.382 79.2185 134.981 79.4088 134.763C79.6153 134.728 79.6315 134.912 79.838 134.877C80.5017 136.217 80.5666 136.95 81.084 138.296C82.1469 135.625 79.1303 133.749 79.1792 130.987C77.6083 128.869 76.65 126.332 76.6153 123.101C76.838 123.25 77.0283 123.032 77.0283 123.032C76.5503 122.368 77.1467 121.765 76.1582 121.727C76.3972 122.059 76.6362 122.391 76.4366 122.74C75.1697 121.688 74.6035 119.792 74.4458 117.065C72.7728 116.397 74.0537 114.768 73.6291 113.76C73.4226 113.795 73.0258 114.047 72.8355 114.265C72.5409 113.068 72.6662 112.117 71.6382 111.396C71.8123 110.995 73.0236 111.182 72.9911 110.816C72.1325 110.588 72.1372 109.694 71.882 109.178C71.6754 109.213 71.318 110.147 70.9259 109.506C71.5292 109.219 71.6963 108.503 71.8704 108.101C72.3484 108.765 72.3321 108.582 73.0979 108.472C73.3925 109.669 73.8381 109.967 73.5178 112.03C74.7453 112.401 74.8497 113.816 74.7313 115.082C75.5574 114.944 75.7685 115.671 75.9983 116.135C75.9842 118.816 77.3486 120.969 78.7454 123.488C78.3486 123.741 77.9518 123.993 77.975 124.492C78.4206 124.789 78.6503 125.253 79.6318 124.977C79.713 125.893 78.4762 125.654 78.7198 126.748C80.4857 126.099 79.8452 128.569 81.2955 129.088C80.6759 129.192 81.1539 129.856 80.5251 130.092C79.7106 129.652 80.6597 129.009 79.8614 128.752C79.5133 129.555 79.9334 129.8 79.3625 130.454C80.1886 130.316 80.1932 131.078 80.4229 131.542L80.2164 131.576C79.1629 130.804 80.511 132.773 80.4229 131.542L80.6294 131.507C81.314 132.136 81.597 133.912 80.576 133.507C81.2443 133.953 81.0818 135.431 81.9566 135.843C81.9241 135.476 82.1307 135.441 82.3372 135.407C82.3859 135.957 82.8152 136.071 83.2445 136.185C83.0542 136.403 83.1029 136.953 82.4903 137.372C82.4578 137.005 82.6318 136.604 82.2188 136.673C82.0448 137.074 82.061 137.258 82.4903 137.372C82.3557 138.455 83.9243 137.708 83.7735 138.608C83.8384 139.341 82.959 138.168 83.1701 138.895C83.4648 140.092 84.5879 139.048 84.8826 140.245C84.4695 140.314 83.8454 139.656 83.9265 140.573C85.5346 140.508 86.117 142.587 85.3071 142.909C85.618 144.289 86.6228 144.511 87.5301 145.289C87.1658 145.909 86.6483 144.563 86.3675 145.652C87.182 146.092 86.7596 147.949 88.1449 147.735C88.2331 148.967 88.5208 149.849 90.0964 149.417C90.5744 150.081 89.1241 149.562 89.087 150.089C90.8319 151.806 91.0128 155.031 93.3379 155.962C92.9411 156.215 93.4098 157.011 93.252 157.595C94.4308 157.416 94.1384 159.084 95.5446 158.16C95.5771 158.526 95.7836 158.492 95.8161 158.858C95.4355 159.294 95.0016 158.418 94.8438 159.003C94.9157 160.051 97.2199 161.693 97.127 163.011C97.3498 163.159 97.7791 163.273 98.1318 163.233C99.6005 166.8 102.557 168.705 104.232 172.238C104.852 172.134 105.091 172.466 105.443 172.425C105.499 173.29 105.803 174.356 107.411 174.291C107.972 177.08 111.699 177.981 113.087 180.632C114.265 180.453 114.743 181.117 115.412 181.563C115.379 181.197 115.999 181.093 115.769 180.629C113.801 178.763 112.04 176.863 110.692 174.894C110.295 175.147 109.769 175.588 109.497 174.89C111.105 174.825 109.36 173.108 109.019 174.226C108.367 173.963 109.383 173.607 109.36 173.108C108.915 172.811 108.502 172.88 107.975 173.322C107.736 172.99 106.699 172.401 107.68 172.125C107.729 172.675 107.736 172.99 108.149 172.921C108.291 172.153 107.877 172.222 107.854 171.723C108.669 172.164 108.523 172.17 109.288 172.06C112.054 174.182 114.284 176.878 117.82 177.997C119.373 177.066 120.737 175.907 121.014 174.056C123.172 175.704 119.067 178.104 119.176 180.281C116.259 182.37 114.486 186.016 110.051 185.643C107.882 182.919 102.9 182.043 102.051 178.371C101.86 178.589 101.893 178.956 101.273 179.059C101.415 178.292 101.192 178.143 100.589 178.43C100.317 177.731 101.16 177.776 101.153 177.461C98.6697 177.115 97.2659 174.28 96.5698 172.574C96.3633 172.608 96.3958 172.975 95.9827 173.044C95.4978 172.065 96.0037 170.678 95.231 170.473C95.1985 170.106 94.7692 169.992 94.5951 170.393C92.7156 169.759 93.247 168.424 93.1751 167.375C92.5556 167.479 93.0335 168.143 92.414 168.247C93.1357 166.694 91.3048 166.61 90.5878 165.614C91.1517 164.645 91.0868 163.912 90.212 163.5C89.9405 162.802 89.7108 162.338 89.6783 161.971C89.2653 162.04 89.0912 162.442 88.7223 162.299C88.0215 161.486 86.9773 160.582 87.764 159.762C87.3022 159.281 87.3835 160.198 86.6015 160.124C86.743 159.356 85.9494 159.861 86.1165 159.145C86.4808 158.526 87.1213 159.367 87.2628 158.599C86.6433 158.703 86.9914 157.901 86.3718 158.005C86.1815 158.223 86.1815 158.223 85.7685 158.292C85.3392 158.178 85.49 157.278 85.0608 157.164C86.0006 156.653 85.3229 157.994 86.098 157.753C86.2396 156.985 86.0099 156.521 85.5806 156.407C85.1675 156.476 84.961 156.511 84.6083 156.551C84.5433 155.818 84.353 156.036 84.5201 155.32C82.9283 155.568 83.65 154.014 82.9817 153.568C83.3948 153.499 84.193 153.756 84.1443 153.206C83.65 152.359 82.281 152.756 81.8285 152.143C82.0025 151.742 82.8008 151.999 82.8379 151.472C82.5827 150.956 81.2136 151.353 81.3645 150.454C82.5595 150.458 81.8634 148.751 81.2438 148.855C81.1626 147.939 80.7264 147.509 80.3412 147.183C80.5802 147.515 80.1672 147.585 79.9607 147.619C79.9282 147.253 79.1787 147.546 79.2761 146.99C79.2112 146.256 80.4387 146.627 80.2531 145.952C79.3945 145.723 79.6335 146.055 78.8678 146.165C78.9931 145.214 78.5893 145.151 78.0139 145.043C78.9212 144.166 77.1066 144.265 77.464 143.331C77.8608 143.078 78.8655 143.3 78.8331 142.934C78.1253 141.806 77.5012 141.148 76.3061 141.144C76.7192 141.074 77.3387 140.97 77.2622 140.816C76.2017 139.729 77.2762 138.134 74.8768 138.258C74.3988 137.594 75.0184 137.49 74.5821 137.061C74.7562 136.659 75.4082 136.922 75.5916 136.389C74.4128 136.568 73.5379 136.157 73.6239 134.524C74.0369 134.454 74.2759 134.786 74.4499 134.385C74.8305 133.949 74.1715 133.371 73.3895 133.298C73.6448 133.813 73.0484 134.415 73.0252 133.917C73.6285 133.63 72.3778 132.76 73.1111 132.284C73.3176 132.249 73.5241 132.215 73.5079 132.031C73.3014 132.066 73.0949 132.101 73.1111 132.284C72.9046 132.319 72.8883 132.135 72.4753 132.205C71.763 130.315 71.1968 128.419 70.756 127.228C70.5495 127.262 70.5982 127.812 70.3916 127.847C70.5425 126.947 69.1247 126.794 70.0483 126.1C70.0645 126.283 70.7003 126.363 70.6678 125.996C69.6631 125.774 70.5797 124.764 69.2013 125.293C68.9229 124.279 68.6352 123.397 69.4288 122.892C69.1898 122.56 67.9623 122.189 68.7652 121.552C68.7814 121.736 69.2107 121.85 69.1945 121.666C69.1782 121.483 68.9555 121.334 68.7652 121.552C68.5099 121.037 67.9507 121.112 67.8417 120.591C68.4288 120.12 68.8627 120.996 68.8743 120.418C68.5959 119.404 67.7814 118.964 67.0806 118.151C67.2871 118.116 67.6677 117.68 67.6515 117.497C67.1735 116.833 66.5911 116.41 66.3033 115.528C66.2546 114.978 67.1132 115.206 67.09 114.708C66.4217 114.261 65.8625 114.337 66.4426 113.551C66.2199 113.402 66.0133 113.437 65.6003 113.506C65.3451 112.991 66.561 112.285 65.6862 111.873C65.431 111.358 66.0668 111.437 65.8208 110.79C65.424 111.043 65.4472 111.541 64.881 111.301C64.9994 110.035 64.7766 109.886 65.2918 108.367C64.3196 108.512 64.5841 107.239 64.0087 107.131C64.1827 106.73 64.8023 106.626 64.7953 106.311C64.1549 105.469 63.8765 104.456 64.2014 103.155C63.9624 102.823 63.0064 103.15 62.9414 102.417C64.5008 101.802 62.4194 100.309 63.5425 99.2652C62.7002 99.2204 62.2987 98.7109 61.8463 98.0984C61.7975 97.5484 62.6561 97.7766 62.6329 97.2781C62.2037 97.1641 61.8185 96.838 61.3822 96.4088C61.5725 96.1908 62.3545 96.2644 62.3824 95.869C61.1386 95.3148 61.8812 94.7065 62.213 93.7206C61.561 93.4579 61.8162 93.9732 61.2245 93.6817C61.3754 92.782 62.104 91.5436 61.032 91.035C61.814 91.1085 61.3801 90.2324 61.9556 90.3406C63.4221 91.0435 64.0811 91.6214 64.0276 93.621C63.3918 93.5416 63.1853 93.5762 62.872 94.2985C63.5241 94.5613 63.9162 95.2025 63.6168 96.555C64.4267 96.2332 63.9045 97.437 64.8443 96.9259C64.6193 93.9125 64.2319 90.7216 63.6217 87.3821C63.4477 87.7834 63.4871 88.4651 63.1065 88.901C63.3293 89.0497 63.7748 89.3471 63.798 89.8456C62.6517 90.3913 61.9509 89.5785 60.7884 89.9409C62.0531 88.1289 59.7327 86.304 60.828 83.9994C60.6215 84.034 60.415 84.0687 60.2084 84.1033C59.937 83.4046 60.7793 83.4494 60.7561 82.951C60.5171 82.619 59.9741 82.8775 60.0716 82.3216C60.2921 79.6055 58.6725 76.9376 59.8607 73.3151C59.812 72.7651 58.8722 73.2762 58.9534 72.537C60.109 71.8595 59.6427 70.6168 58.7678 70.2053C60.3203 69.2752 57.7122 66.5684 59.4386 65.237C57.7586 64.2536 59.6407 59.4729 58.5153 57.6523C58.5478 58.019 58.3412 58.0536 57.9444 58.3062C57.666 57.2924 58.7311 57.4859 58.9051 57.0846C58.8008 55.6696 57.7635 55.0807 58.534 54.0771C58.9632 54.1912 58.9957 54.5578 59.3601 53.9386C59.1048 53.4232 58.5456 53.4984 58.534 54.0771C56.9839 52.9045 59.5411 52.1966 58.2811 51.4591Z" fill="black"/>
<path d="M131.401 153.986C131.217 154.073 131.095 154.132 131.173 154.289C131.408 154.306 131.33 154.149 131.401 153.986ZM129.041 164.816C129.915 164.593 128.322 165.352 129.041 164.816V164.816ZM134.9 140.866C134.365 141.315 135.774 140.644 134.9 140.866V140.866ZM133.27 147.207C133.039 147.964 133.753 146.654 133.27 147.207V147.207ZM132.341 151.144C131.337 151.104 131.422 151.582 131.061 152.077C131.854 152.605 132.572 152.069 132.341 151.144C132.923 150.025 132.869 148.692 132.701 147.284C131.316 148.462 133.1 149.618 131.592 150.854C131.721 151.115 132.028 150.969 132.341 151.144ZM131.684 153.333C131.194 153.567 130.581 153.859 131.024 154.295L131.208 154.207C131.467 154.731 132.049 153.612 131.437 153.904C131.272 153.724 131.936 153.537 131.684 153.333C131.738 152.984 132.403 152.797 132.037 152.518C131.547 152.751 131.476 152.914 131.684 153.333ZM130.741 154.947C130.642 155.512 130.902 156.035 131.621 155.499C131.675 155.149 131.72 154.934 131.354 154.655C131.177 155.063 131.17 154.743 130.741 154.947ZM130.588 155.861C130.536 155.756 130.772 155.774 130.588 155.861V155.861ZM131.338 156.151C130.673 156.338 130.395 157.765 129.728 158.406C129.964 158.423 130.27 158.277 130.218 158.173C130.631 157.782 130.372 158.941 130.916 158.358C130.728 157.671 131.133 156.961 131.338 156.151ZM130.711 159.167C130.398 158.993 130.275 159.051 129.962 158.877C129.856 159.122 130.047 159.354 130.098 159.459C130.221 159.401 130.527 159.255 130.711 159.167ZM130.228 159.721C130.129 160.286 129.516 160.578 129.226 160.91C129.356 161.172 129.434 161.329 129.564 161.59C130.282 161.054 130.643 160.559 130.228 159.721ZM129.677 163.348C128.802 163.571 129.936 163.872 129.677 163.348C129.861 163.261 129.906 163.045 129.67 163.028C129.898 162.725 130.205 162.579 130.023 162.213C129.533 162.446 129.234 162.912 129.67 163.028C129.731 162.999 129.599 163.191 129.677 163.348ZM128.704 164.135C128.511 166.039 127.9 167.559 128.756 169.287C129.437 167.604 129.071 165.642 129.752 163.959C129.578 163.913 129.088 164.146 128.704 164.135ZM126.88 169.016C126.88 169.016 126.696 169.103 126.573 169.162C126.651 169.319 126.703 169.423 126.703 169.423C126.887 169.336 127.009 169.278 127.009 169.278C127.009 169.278 126.958 169.173 126.88 169.016ZM127.984 173.537C127.878 173.782 127.807 173.945 127.936 174.207C128.068 174.014 128.113 173.799 127.984 173.537ZM127.929 172.204C127.875 172.554 126.949 172.671 127.217 173.061C127.293 173.672 127.783 173.438 128.457 173.117C128.434 172.611 127.858 172.367 128.839 171.9C128.396 171.464 128.372 170.958 128.733 170.463C128.603 170.201 128.113 170.434 127.622 170.668C128.679 170.812 127.837 171.407 127.241 171.885C127.309 172.176 127.571 172.245 127.929 172.204ZM127.173 174.959C127.357 174.871 127.279 174.714 127.227 174.609C127.017 174.644 127.095 174.802 127.173 174.959ZM128.97 178.891C129.62 179.746 129.429 177.831 128.97 178.891V178.891ZM126.765 176.123C126.282 176.677 127.769 176.163 126.765 176.123V176.123ZM127.248 175.57C128.107 176.843 126.711 176.473 126.435 177.445C127.001 177.823 127.385 176.152 127.44 177.485C127.977 176.582 128.175 175.452 127.83 174.451C127.715 174.83 127.661 175.179 127.248 175.57ZM127.647 177.903C126.697 177.515 125.655 179.693 127.143 179.179C127.991 178.904 127.27 178.212 127.647 177.903ZM126.198 179.564C126.228 180.391 127.598 180.709 125.953 181.363C126.212 181.887 126.879 181.246 127.263 181.257C127.24 180.75 126.919 180.256 127.331 179.865C126.912 179.936 126.81 179.272 126.198 179.564ZM126.733 184.162C126.549 184.25 126.811 184.319 126.733 184.162V184.162ZM127.103 181.851C126.568 182.3 126.443 182.812 125.847 183.29C126.16 183.464 126.467 183.319 126.896 183.114C126.672 182.509 127.285 182.217 127.103 181.851ZM126.406 185.03C126.144 184.96 126.144 184.96 126.014 184.699C125.524 184.932 125.732 185.351 125.739 185.671C126.045 185.525 126.71 185.338 126.406 185.03C127.254 184.755 126.12 184.454 126.406 185.03ZM125.907 188.762C125.784 188.82 126.168 188.831 125.907 188.762V188.762ZM125.616 187.412C125.51 187.656 125.334 188.064 125.541 188.483C125.725 188.395 126.031 188.249 126.338 188.104C126.166 187.603 125.852 187.429 125.616 187.412ZM125.791 190.823C125.607 190.91 125.485 190.969 125.485 190.969C125.563 191.126 125.615 191.23 125.692 191.387C125.692 191.387 125.876 191.3 125.999 191.242C125.921 191.084 125.869 190.98 125.791 190.823ZM125.638 190.055C125.148 190.288 124.657 190.522 124.978 191.016C124.971 190.696 126.098 190.677 125.638 190.055ZM124.995 191.202C124.389 191.814 125.921 191.084 124.995 191.202V191.202ZM124.627 193.06C123.83 193.439 124.964 193.74 124.627 193.06C124.733 192.815 124.804 192.652 124.674 192.39C126.136 191.823 125.464 191.69 124.413 192.321C124.542 192.582 124.436 192.827 124.627 193.06ZM124.736 194.043C124.422 193.869 124.194 194.172 123.887 194.318C123.937 194.877 124.604 194.235 124.736 194.043ZM124.276 195.103C124.092 195.191 124.17 195.348 123.864 195.494C123.942 195.651 123.942 195.651 123.993 195.756C124.536 195.627 124.406 195.365 124.276 195.103ZM123.814 196.617C123.586 196.92 123.454 197.113 123.147 197.259C123.661 197.531 123.277 197.52 123.485 197.939C124.159 197.618 124.213 197.269 123.814 196.617ZM123.164 199.127C122.497 199.768 124.091 199.009 123.164 199.127V199.127ZM123.323 209.081C121.094 211.307 117.473 212.255 114.748 212.259C111.333 214.08 107.91 213.898 105.162 213.396C102.941 212.124 100.009 211.709 97.7807 210.117C97.1371 209.582 96.7481 208.797 96.0432 208.291C94.7041 207.117 93.0492 206.223 91.6489 205.078C88.2659 202.225 84.7812 197.026 82.8148 193.821C82.5555 193.298 82.0415 193.025 82.1405 192.46C81.7491 192.129 80.9524 192.508 80.7991 191.74C81.7959 189.777 84.9334 189.383 86.7411 187.68C87.6133 187.912 88.8461 187.648 89.9492 187.123C92.5831 193.051 96.4166 198.343 100.889 201.713C104.541 206.638 109.701 208.645 115.137 209.68C118.298 209.792 120.643 205.504 120.199 203.386C121.326 201.685 121.005 199.508 122.176 197.592C122.482 192.399 124.183 187.577 123.992 182.297C125.217 180.031 124.811 177.378 125.103 174.909C126.152 173.051 125.334 170.787 126.198 169.017C126.734 168.568 126.941 168.987 127.302 168.491C127.042 167.968 126.375 168.609 126.116 168.085C126.399 167.433 126.568 166.705 127.113 166.122C126.255 164.849 127.119 163.078 127.833 161.767C127.788 158.618 128.754 155.829 129.765 152.824C130.264 149.092 130.754 145.494 133.234 142.242C132.858 140.415 134.834 138.439 136.349 137.523C136.165 137.61 136.172 137.931 136.557 137.942C138.419 135.89 142.345 133.114 144.368 135.515C144.453 135.993 143.831 136.418 143.864 136.791C142.945 137.229 142.893 137.124 142.148 137.608C141.028 139.63 139.49 141.721 139.452 143.939C139.275 144.347 138.785 144.58 138.792 144.901C137.131 152.098 134.808 159.028 134.517 166.543C133.706 167.964 132.886 169.52 133.697 171.463C133.155 171.592 132.693 171.424 132.594 171.988C133.191 173.192 132.915 174.165 132.378 175.068L133.075 175.253C132.258 176.355 132.423 178.217 132.454 179.044C131.963 179.277 131.398 178.899 131.473 179.511C131.603 179.772 132.138 179.323 132.223 179.801C130.613 182.055 132.659 184.963 130.72 186.858C131.147 190.472 130.084 193.372 129.073 196.377C129.302 196.074 129.486 195.987 129.816 196.347C129.71 196.592 129.019 196.727 129.149 196.988C130 197.942 128.444 199.847 127.886 201.472C127.052 204.07 125.735 207.22 123.368 208.865C122.418 208.477 120.62 210.045 120.398 210.668C121.631 210.404 122.345 209.094 123.323 209.081Z" fill="black"/>
</svg>
