<svg width="124" height="214" viewBox="0 0 124 214" fill="none" xmlns="http://www.w3.org/2000/svg">
<path d="M53.4181 171.281C53.2859 171.134 53.6036 171.441 53.4181 171.281V171.281ZM56.994 165.049C57.0058 165.228 57.0176 165.406 57.0295 165.585C57.2032 165.566 57.3768 165.546 57.3768 165.546C57.365 165.368 57.3531 165.189 57.3413 165.01C57.3413 165.01 57.1676 165.029 56.994 165.049ZM58.2214 163.508C58.2096 163.329 58.407 163.667 58.2214 163.508V163.508ZM55.7822 164.716C56.0821 163.962 56.7709 164.588 56.8972 163.853C56.388 164.09 56.5262 163.535 56.5143 163.356C56.0052 163.593 55.3993 164.218 55.7822 164.716ZM57.7774 162.351C57.803 162.474 57.4419 162.568 57.7774 162.351V162.351ZM57.5563 161.655C57.4063 162.032 57.7537 161.993 57.7774 162.351C58.1247 162.312 58.0536 161.24 57.5563 161.655ZM58.8687 161.131C59.0779 161.648 58.545 161.527 58.5806 162.063C59.1272 162.128 59.4015 161.251 58.8687 161.131ZM57.5563 161.655C57.4832 160.817 56.382 161.624 56.6031 162.32C57.0708 162.25 56.7175 161.407 57.5563 161.655ZM66.4194 159.965C66.2457 159.984 66.0839 160.182 65.9102 160.201C65.9221 160.38 65.9339 160.559 65.9458 160.738C66.1194 160.718 66.4668 160.68 66.6404 160.66C66.6167 160.303 66.4312 160.143 66.4194 159.965ZM59.5278 160.517C59.0542 161.29 60.1199 159.947 59.5278 160.517V160.517ZM58.8982 159.201C57.8976 159.151 57.9569 160.044 57.4595 160.46C57.4951 160.996 57.6924 161.334 58.4009 161.201C57.6095 160.083 58.9693 160.273 58.8982 159.201ZM60.6546 158.249C60.4454 157.732 59.5159 158.754 60.181 159.022C60.2106 158.677 60.8638 158.766 60.6546 158.249ZM59.0837 157.776C58.9337 158.153 58.7956 158.708 59.5159 158.754C59.8139 158.235 59.281 158.114 59.0837 157.776ZM60.7197 156.855C60.2994 157.64 61.6355 157.473 60.7197 156.855V156.855ZM59.7053 156.86C59.9145 157.377 59.1113 157.665 59.7902 157.877C59.952 157.679 60.1868 156.735 59.7053 156.86ZM61.3413 155.94C61.515 155.92 61.6887 155.901 61.6768 155.722C61.4499 155.73 61.3295 155.761 61.3413 155.94ZM59.9401 155.916C59.5928 155.955 59.2454 155.993 59.2573 156.172C59.6816 156.503 59.8434 156.305 59.9401 155.916ZM61.3945 152.783C61.2939 153.64 62.0359 152.693 61.3945 152.783V152.783ZM69.0064 152.276C69.563 152.754 68.2506 153.279 69.2887 153.631C69.2413 152.916 70.0682 152.986 70.2063 152.43C69.6853 152.489 69.9596 151.612 69.4267 151.491C69.5037 151.861 69.1682 152.078 69.0064 152.276ZM63.737 150.379C63.216 150.437 63.066 150.814 63.1016 151.35C63.6364 151.237 63.7864 150.86 63.737 150.379ZM61.3945 152.783C62.4602 151.44 62.251 150.923 62.6634 149.491C61.9687 149.568 62.0575 150.116 61.5365 150.174C62.028 152.046 60.3564 152.431 60.021 154.232C60.0447 154.59 60.3802 154.372 60.4039 154.73C60.2657 155.285 59.6125 155.196 59.9796 155.984C60.1414 155.785 60.4769 155.568 60.9565 155.677C60.7492 154.925 60.4176 153.09 61.3945 152.783ZM71.9705 147.372C71.9705 147.372 72.156 147.532 71.9705 147.372V147.372ZM63.5455 147.754C63.3955 148.131 62.4305 148.616 62.989 148.86C63.0719 148.527 64.0369 148.041 63.5455 147.754ZM63.8691 145.773C63.8809 145.952 63.5336 145.991 63.3599 146.01C63.2218 146.566 63.5948 146.65 64.2895 146.572C64.0783 146.29 64.2164 145.734 63.8691 145.773ZM64.1315 144.718C63.9934 145.273 64.3526 145.413 64.8617 145.176C64.9466 144.609 64.4256 144.667 64.1315 144.718ZM64.5637 144.111C64.6111 144.826 65.4202 143.836 64.5637 144.111V144.111ZM64.5637 144.111C64.39 144.131 64.3782 143.952 64.5637 144.111V144.111ZM73.7623 142.203C73.5886 142.223 73.7741 142.382 73.7623 142.203V142.203ZM73.7623 142.203C74.4451 141.947 73.5156 141.384 73.7623 142.203V142.203ZM64.9761 142.679C65.1972 143.374 64.1847 143.145 64.4196 143.785C64.9406 143.727 65.2347 143.676 65.3965 143.478C65.359 143.176 65.432 142.43 64.9761 142.679ZM65.6057 142.411C65.1853 143.196 66.2648 141.797 65.6057 142.411V142.411ZM67.0976 139.58C67.1331 140.116 66.7858 140.154 67.0088 140.616C67.5397 140.971 67.4449 139.541 67.0976 139.58ZM74.3897 137.416C74.5634 137.397 74.5634 137.397 74.737 137.377C74.5515 137.218 74.7252 137.198 74.8989 137.179C74.887 137 74.8752 136.822 74.8752 136.822C74.3285 136.757 74.366 137.058 74.3897 137.416ZM67.954 137.72C67.7547 137.616 68.1277 137.7 67.954 137.72V137.72ZM74.2693 135.863C74.2811 136.042 74.4666 136.201 74.6403 136.182C74.6166 135.824 74.9639 135.785 74.9402 135.428C74.5396 135.455 74.5633 135.812 74.2693 135.863ZM66.9277 135.961C66.8014 136.696 66.689 137.374 66.7778 137.923C66.6041 137.942 66.4186 137.783 66.2331 137.623C66.3298 138.819 64.5557 140.295 65.8563 141.176C66.0062 140.8 65.7832 140.338 66.4503 140.372C66.3654 139.355 66.7009 139.138 66.1443 138.66C67.1093 138.174 67.5573 137.278 67.648 136.007C67.2869 136.101 67.2632 135.744 66.9277 135.961ZM68.7493 135.2C68.5756 135.22 68.9348 135.36 68.7493 135.2V135.2ZM68.2341 132.971C68.1078 133.705 67.6657 133.899 67.5158 134.275C68.5163 134.326 67.054 135.227 67.7743 135.273C67.7625 135.094 67.9362 135.075 68.1098 135.055C67.8631 134.237 68.3604 133.821 68.6308 133.413C68.2696 133.507 68.4078 132.952 68.2341 132.971ZM76.5386 131.037C77.1564 132.174 77.0123 130.264 76.5386 131.037V131.037ZM68.5577 130.99C68.7669 131.507 68.2459 131.565 68.4689 132.027C69.3728 132.466 69.2405 130.734 68.5577 130.99ZM72.0014 129.364C71.8278 129.383 72.0133 129.543 72.0014 129.364V129.364ZM69.2443 127.097C69.6766 128.075 68.8358 128.061 68.897 128.72C69.2444 128.681 69.5917 128.643 69.8858 128.592C69.6647 127.896 69.789 127.396 69.939 127.019C69.7653 127.039 69.418 127.077 69.2443 127.097ZM71.7426 122.029C71.6045 122.584 71.3184 123.283 72.0131 123.205C71.6164 122.763 72.5577 121.92 71.7426 122.029ZM70.9454 124.783C70.4777 123.268 71.6282 122.942 71.3697 121.944C70.2191 122.271 69.3331 126.061 70.6336 125.357C69.9271 125.256 70.7718 124.802 70.9454 124.783ZM71.8551 119.766C71.0163 119.517 70.8368 121.824 71.5315 121.746C71.6696 121.191 71.5571 120.285 71.8551 119.766ZM71.6221 118.892C71.7958 118.872 71.9932 119.21 72.1432 118.833C72.1313 118.655 71.6103 118.713 71.6221 118.892ZM77.9018 114.914C78.261 115.054 78.2373 114.697 78.2254 114.518C77.8524 114.434 77.89 114.736 77.9018 114.914ZM81.2626 110.452C81.2626 110.452 81.4481 110.612 81.2626 110.452V110.452ZM81.4895 108.861C81.5013 109.039 81.3513 109.416 81.6987 109.377C81.6987 109.377 81.6868 109.199 81.8605 109.179C81.8487 109.001 81.825 108.643 81.4895 108.861ZM80.7336 108.279C80.6132 108.31 80.9191 108.438 80.7336 108.279V108.279ZM81.8544 105.129C82.0637 105.646 81.4065 106.025 81.9393 106.146C82.0992 106.182 82.3873 105.25 81.8544 105.129ZM82.9554 97.9843C82.7561 97.8805 83.1291 97.9649 82.9554 97.9843V97.9843ZM81.9785 96.7069C82.1758 97.045 82.3258 96.6682 81.9785 96.7069V96.7069ZM82.9001 95.0377C82.9119 95.2164 82.9119 95.2164 82.9238 95.3951C83.0974 95.3758 83.2711 95.3564 83.4448 95.337C83.4329 95.1583 83.4329 95.1583 83.4211 94.9796C83.1941 94.9869 83.0204 95.0062 82.9001 95.0377ZM76.8946 94.9692C77.092 95.3073 76.942 95.6841 77.315 95.7685C77.2795 95.2324 77.6149 95.0149 76.8946 94.9692ZM81.0113 91.0892C80.8258 90.9298 81.0231 91.2679 81.0113 91.0892V91.0892ZM77.301 89.4864C77.3365 90.0226 77.3484 90.2013 77.895 90.2664C77.672 89.8052 77.9838 89.2302 77.301 89.4864ZM80.8296 88.8768C80.6796 89.2537 80.877 89.5918 81.2243 89.553C81.2125 89.3743 81.548 89.1568 81.3506 88.8188C81.1375 88.7705 81.0171 88.8019 80.8296 88.8768ZM83.3182 88.1492C83.3301 88.3279 83.3419 88.5067 83.3538 88.6854C83.5274 88.666 83.7011 88.6467 83.8748 88.6273C83.8629 88.4486 83.8511 88.2698 83.8392 88.0911C83.6656 88.1105 83.4919 88.1298 83.3182 88.1492ZM82.7715 88.0841C82.6097 88.2822 82.6216 88.461 82.4361 88.3016C82.4479 88.4803 82.4597 88.659 82.4716 88.8378C83.0301 89.0816 83.1189 88.0454 82.7715 88.0841ZM83.6989 82.5432C84.1311 81.9369 83.0398 83.1569 83.6989 82.5432V82.5432ZM80.8649 81.4909C81.2596 82.1671 81.3267 80.5392 80.8649 81.4909V81.4909ZM75.9966 92.2426C76.3084 91.6677 75.9117 91.2258 76.2235 90.6509C76.7563 90.7715 76.6912 92.1651 75.9966 92.2426ZM76.7977 87.436C76.8095 87.6147 76.4621 87.6535 76.2885 87.6728C76.2766 87.4941 76.624 87.4554 76.7977 87.436ZM76.6041 83.4605C76.9041 82.7069 77.1982 84.2405 76.6041 83.4605V83.4605ZM76.7481 80.6177C75.6824 81.9609 76.3476 83.8132 75.8266 85.4557C76.3713 85.7551 76.618 84.9894 77.0127 85.6655C76.4917 85.7236 76.8864 86.3998 76.5391 86.4386C76.3417 86.1005 76.168 86.1198 75.9825 85.9605C75.3471 88.516 75.8466 92.6194 74.852 95.035C75.373 94.9769 75.0731 95.7305 75.5822 95.4937C76.2118 95.2254 75.6236 93.7426 76.415 93.2762C76.4505 93.8124 76.2769 93.8318 76.3006 94.1892C77.1808 94.2711 76.636 92.3874 77.4274 93.5054C77.9129 92.9111 77.1807 92.6867 76.9952 92.5274C77.307 91.9524 77.1333 91.9718 77.0603 91.1337C77.4076 91.095 77.4313 91.4524 77.9523 91.3943C77.8792 90.5563 77.0484 90.955 76.8787 90.5058C77.82 89.6626 76.0399 90.2572 76.2491 89.1896C77.8082 89.4839 76.7937 87.9045 77.6502 87.629C77.5003 88.0058 78.5423 87.8896 78.1594 87.3922C78.1238 86.856 76.997 87.5398 77.218 86.6509C77.5653 86.6122 77.9127 86.5735 78.0982 86.7328C77.1331 85.6341 77.5455 84.2018 77.6481 83.11C77.9954 83.0713 77.8573 83.6268 78.3665 83.39C78.1454 82.6944 78.6664 82.6363 78.4434 82.1751C77.9105 82.0545 77.9342 82.4119 77.6402 82.4627C76.9928 81.6707 77.7487 80.6681 76.7481 80.6177ZM77.725 80.3107C77.946 81.0062 77.4625 81.3662 78.3309 81.2694C78.2815 80.7888 78.246 80.2526 77.725 80.3107ZM81.0799 79.7205C81.301 80.416 81.4746 78.8122 81.0799 79.7205V79.7205ZM77.9143 76.8326C77.7525 77.0307 77.5907 77.2288 77.7999 77.7456C78.5084 77.6126 78.4491 76.719 77.9143 76.8326ZM83.1556 66.1654C82.982 66.1848 83.3411 66.3248 83.1556 66.1654V66.1654ZM83.1082 65.4505C83.0352 64.6124 83.0175 66.7209 83.1082 65.4505V65.4505ZM82.9878 63.8975C82.8615 63.0473 82.8971 65.1679 82.9878 63.8975V63.8975ZM82.9878 62.3131C83.0884 61.4556 82.9503 63.5956 82.9878 62.3131V62.3131ZM82.5495 58.869C82.5614 59.0477 82.5732 59.2265 82.585 59.4052C82.7587 59.3858 82.7587 59.3858 82.9324 59.3664C82.9205 59.1877 82.9087 59.009 82.8968 58.8303C82.7232 58.8496 82.7232 58.8496 82.5495 58.869ZM82.1705 56.3186C82.1942 56.676 82.0442 57.0529 82.5534 56.816C82.4764 56.4465 82.3442 56.2992 82.1705 56.3186ZM82.2178 55.4491C82.0205 56.6954 83.0862 55.3522 82.2178 55.4491V55.4491ZM82.1586 54.5554C82.3915 55.4297 82.2592 53.698 82.1586 54.5554V54.5554ZM82.05 53.1812C82.0737 53.5386 81.7876 54.2367 82.3086 54.1786C82.0737 53.5386 82.7565 53.2824 82.05 53.1812ZM81.7441 51.4688C81.7441 51.4688 82.0914 51.4301 82.0795 51.2513C81.9059 51.2707 81.7322 51.2901 81.7441 51.4688ZM81.5032 48.3628C81.5269 48.7203 81.4736 50.2926 81.7736 49.539C81.7361 49.2371 81.5624 47.672 81.5032 48.3628ZM80.8972 45.8197C81.0116 44.9067 80.8736 47.0467 80.8972 45.8197V45.8197ZM80.4353 42.0182C80.5359 41.1607 80.3445 43.2886 80.4353 42.0182V42.0182ZM79.5885 37.9535C79.7622 37.9341 79.6122 38.311 79.5885 37.9535V37.9535ZM54.0478 174.182C54.6536 173.556 53.5742 174.955 54.0478 174.182V174.182ZM55.8516 173.945C55.816 173.408 56.1634 173.37 56.6311 173.3C56.7318 174.027 56.2108 174.085 55.8516 173.945ZM57.1698 171.133C56.9961 171.152 57.1817 171.312 57.1698 171.133V171.133ZM55.4982 171.517C55.289 171.001 55.81 170.942 55.7982 170.764C56.3054 170.761 56.0311 171.638 55.4982 171.517ZM57.2467 169.918C56.9586 170.85 56.0725 169.887 57.2467 169.918V169.918ZM57 169.099C56.9882 168.921 57.15 168.722 57.4973 168.684C57.4559 168.85 57.3474 169.061 57 169.099ZM58.5354 167.452C58.5472 167.63 58.3735 167.65 58.1999 167.669C58.2413 167.502 58.415 167.483 58.5354 167.452ZM60.1832 166.71C60.2069 167.067 59.8477 166.927 59.8596 167.106C59.8892 166.761 60.0214 166.908 60.1832 166.71ZM61.2253 166.594C61.2844 165.903 61.4582 167.468 61.2253 166.594V166.594ZM63.0054 165.999C63.106 165.141 63.2383 166.873 63.0054 165.999V165.999ZM63.9506 164.687C63.7651 164.528 64.1362 164.847 63.9506 164.687V164.687ZM64.1855 163.743C64.1736 163.564 64.1618 163.385 64.1618 163.385C64.3354 163.366 64.5091 163.347 64.6828 163.327C64.6828 163.327 64.6946 163.506 64.7065 163.685C64.5328 163.704 64.3591 163.723 64.1855 163.743ZM63.2855 162.835C63.2973 163.014 63.1237 163.033 62.95 163.052C62.9382 162.874 63.1118 162.854 63.2855 162.835ZM59.6187 164C59.7687 163.623 59.522 162.804 60.1752 162.894C59.893 163.123 60.4989 164.082 59.6187 164ZM60.6607 162.299C59.9541 162.198 60.787 161.565 60.7495 161.263C61.602 161.456 60.637 161.942 60.6607 162.299ZM61.3198 160.101C61.1343 159.942 61.4816 159.903 61.3198 160.101C61.3435 160.459 61.0376 160.331 61.3198 160.101ZM64.6748 159.511C64.4892 159.352 64.8603 159.67 64.6748 159.511V159.511ZM61.6316 159.526C61.4322 159.423 61.8052 159.507 61.6316 159.526V159.526ZM63.986 158.886C63.986 158.886 64.1182 159.033 63.986 158.886V158.886ZM66.3345 158.948C66.1253 158.431 66.4726 158.392 66.4351 158.09C66.7844 157.817 66.8673 159.068 66.3345 158.948ZM62.8353 157.628C62.8472 157.806 62.4999 157.845 62.3262 157.864C62.3143 157.686 62.6617 157.647 62.8353 157.628ZM65.322 158.719C64.7773 158.419 65.77 157.822 65.5489 157.127C66.364 157.018 65.2984 158.361 65.322 158.719ZM66.5988 156.074C66.6107 156.252 66.437 156.272 66.2633 156.291C66.291 156.18 66.4251 156.093 66.5988 156.074ZM64.6687 155.461C64.5187 155.837 64.3214 155.499 64.1477 155.519C64.3371 155.21 64.5483 155.492 64.6687 155.461ZM63.5832 154.393C63.7569 154.374 63.745 154.195 63.9187 154.176C64.2542 153.958 64.1654 154.995 63.6069 154.751C63.6069 154.751 63.5951 154.572 63.5832 154.393ZM67.4592 152.161C67.9328 151.388 67.5914 153.892 67.4592 152.161V152.161ZM68.1538 150.499C68.1419 150.32 68.3156 150.301 68.2919 149.943C68.6511 150.083 68.8366 150.243 68.8603 150.6C68.5268 150.583 68.5011 150.46 68.1538 150.499ZM69.6892 150.436C69.1682 150.494 69.4306 149.438 69.9773 149.503C70.1865 150.02 69.6655 150.078 69.6892 150.436ZM67.6505 150.033C67.7235 149.286 67.8972 150.851 67.6505 150.033V150.033ZM67.7235 149.286C67.7116 149.108 67.8735 148.91 67.8498 148.552C68.0235 148.533 68.2208 148.871 68.2445 149.228C68.0709 149.248 67.8972 149.267 67.7235 149.286ZM68.7774 149.349C68.5563 148.653 68.9155 148.793 68.8661 148.313C69.4957 148.044 69.257 149.457 68.7774 149.349ZM66.1526 148.813C65.7934 148.673 66.1289 148.456 66.1052 148.098C66.4644 148.238 66.3144 148.615 66.1526 148.813ZM68.7536 147.407C68.3944 147.267 68.7299 147.05 68.7062 146.692C69.0516 146.888 68.7418 147.228 68.7536 147.407ZM69.5489 146.472C69.7226 146.453 69.7226 146.453 69.7108 146.274C70.0462 146.057 70.1311 147.073 69.5845 147.008C69.5726 146.83 69.5608 146.651 69.5489 146.472ZM69.0042 146.173C69.2785 145.296 69.4246 146.972 69.0042 146.173V146.173ZM69.8074 145.885C70.2692 144.933 70.2022 146.561 69.8074 145.885V145.885ZM70.4547 145.093C70.4666 145.271 70.1192 145.31 69.9456 145.33C69.9337 145.151 70.2811 145.112 70.4547 145.093ZM67.5951 145.502C67.4096 145.342 67.7806 145.661 67.5951 145.502V145.502ZM70.6639 144.025C71.6408 143.718 69.7837 145.528 70.6757 144.204L70.6639 144.025ZM69.6752 144.153C69.6633 143.975 69.6515 143.796 69.6278 143.438C70.2968 143.238 70.3935 144.433 69.6752 144.153ZM70.4428 143.33C70.5553 142.651 70.6757 144.204 70.4428 143.33V143.33ZM67.745 143.54C68.0331 142.608 68.1654 144.34 67.745 143.54V143.54ZM71.2263 142.216C70.8671 142.076 71.2026 141.858 71.1907 141.68C71.5499 141.82 71.2144 142.037 71.2263 142.216ZM71.538 140.057C71.8242 139.358 71.9446 140.911 71.538 140.057V140.057ZM69.4343 141.047C69.2606 141.067 69.2251 140.531 69.1875 140.229C69.6809 140.282 69.7046 140.639 69.4343 141.047ZM71.7886 138.822C71.4413 138.861 71.5913 138.484 71.4057 138.325C71.7412 138.107 71.9386 138.445 71.9504 138.624C71.7768 138.644 71.7768 138.644 71.7886 138.822ZM72.1478 137.378C72.1833 137.914 71.3445 137.666 71.5912 136.9C71.9385 136.861 71.8537 137.429 72.1478 137.378ZM72.1004 138.247C73.0773 137.94 72.0155 137.231 72.795 136.586C73.1898 137.262 72.7892 138.873 72.1715 139.32C72.2445 138.573 72.2564 138.752 72.1004 138.247ZM70.4208 134.816C70.2472 134.835 70.4327 134.994 70.4208 134.816V134.816ZM73.2272 135.979C73.1542 135.141 73.2923 134.586 73.3772 134.018C73.6397 134.547 74.2574 135.684 73.2272 135.979ZM72.5483 134.182C72.3272 133.487 72.8482 133.429 72.8107 133.127C73.3574 133.192 73.0949 134.247 72.5483 134.182ZM71.6009 132.56C71.5891 132.381 71.5891 132.381 71.5772 132.202C71.7509 132.183 71.9246 132.163 71.9246 132.163L71.9483 132.521C71.9483 132.521 71.7746 132.54 71.6009 132.56ZM74.4112 131.67C74.3875 131.313 74.573 131.472 74.4112 131.67C74.1112 132.424 74.2613 133.631 73.4048 133.907C73.3218 132.656 73.7402 132.105 74.4112 131.67ZM75.2875 132.22C74.5573 131.762 75.6703 131.133 75.4255 130.08C76.5031 130.5 75.0526 131.58 75.2875 132.22ZM72.8422 130.963C72.4949 131.001 72.633 130.446 72.2857 130.485C72.2738 130.306 72.6212 130.267 72.7948 130.248C72.7929 130.482 72.8166 130.84 72.8422 130.963ZM73.5192 131.409C72.5067 131.18 73.6454 130.675 73.4106 130.035C74.1171 130.136 73.6573 130.854 73.5192 131.409ZM70.4029 130.587C70.2292 130.606 70.5884 130.746 70.4029 130.587V130.587ZM74.2789 129.938C74.7762 129.523 74.344 128.545 75.1709 128.614C74.8591 129.189 74.8966 129.491 75.2795 129.989C74.7703 130.226 74.4111 130.086 74.2789 129.938ZM74.0815 129.6C73.5487 129.48 73.823 128.603 73.9966 128.583C74.2907 128.533 74.0697 129.421 74.0815 129.6ZM70.3853 134.28C70.4621 131.48 71.2713 130.49 71.9304 128.292C72.2777 128.253 72.1514 128.987 72.5126 128.893C71.4212 130.113 71.2318 132.007 70.6734 133.347C71.2181 133.647 71.4155 133.985 70.9438 134.523C70.7445 134.42 70.7208 134.062 70.3853 134.28ZM74.5176 126.941C74.5176 126.941 74.7169 127.045 74.5176 126.941V126.941ZM74.9261 127.561C74.7051 126.866 75.2143 126.629 75.3504 126.308C75.6563 126.436 75.3939 127.491 74.9261 127.561C74.9261 127.561 74.938 127.74 75.1117 127.721C75.1354 128.078 74.788 128.117 74.9854 128.455C74.4644 128.513 74.4288 127.977 73.973 128.226C73.9611 128.047 74.1229 127.849 74.0992 127.492C74.3814 127.262 74.4051 127.62 74.9261 127.561ZM72.1514 127.403C72.1277 127.045 72.1158 126.867 72.2776 126.669C72.7986 126.61 72.325 127.383 72.325 127.383L72.1514 127.403C72.3981 128.222 71.5218 127.671 72.1514 127.403ZM75.2734 125.938C75.4353 125.74 75.4234 125.561 75.4116 125.383C75.7589 125.344 75.9326 125.325 76.1062 125.305C76.1181 125.484 76.1299 125.663 76.1418 125.841C75.7944 125.88 75.6208 125.9 75.2734 125.938ZM73.3927 125.806C73.367 125.683 73.5782 125.965 73.3927 125.806V125.806ZM74.2729 125.888L74.7583 125.294C75.1057 125.255 75.1412 125.791 74.9794 125.989C74.8057 126.008 74.6202 125.849 74.2729 125.888ZM74.9793 124.405C74.7938 124.245 75.1649 124.564 74.9793 124.405V124.405ZM74.0024 124.712C73.9906 124.533 73.9787 124.354 73.9787 124.354C74.1524 124.335 74.3261 124.316 74.3261 124.316L74.3498 124.673C74.3498 124.673 74.1761 124.692 74.0024 124.712ZM77.6159 123.534C77.6396 123.892 77.2804 123.752 77.1186 123.95C77.1482 123.605 77.4541 123.733 77.6159 123.534ZM71.7605 124.674C71.8868 123.939 72.3427 125.275 71.7605 124.674V124.674ZM76.2443 123.165C77.1482 123.605 75.6622 124.148 75.7233 123.223C76.0568 123.24 76.268 123.523 76.2443 123.165ZM75.5358 123.298C75.0148 123.356 75.2891 122.48 75.0917 122.142C75.9502 121.632 75.6977 123.1 75.5358 123.298ZM74.4267 121.874C74.5529 121.139 74.6734 122.692 74.4267 121.874V121.874ZM75.5535 121.19C75.5298 120.832 75.6916 120.634 75.6679 120.277C75.8416 120.257 76.0153 120.238 76.3626 120.199C76.2245 120.755 76.0745 121.132 75.5535 121.19ZM76.2481 119.528C76.3744 118.794 76.4949 120.347 76.2481 119.528V119.528ZM76.6132 117.381C76.4158 117.043 75.9066 117.279 76.031 116.779C76.2046 116.76 76.3901 116.919 76.7375 116.881C76.7493 117.059 76.7493 117.059 76.7612 117.238C76.6013 117.202 76.6132 117.381 76.6132 117.381ZM77.3158 117.95C77.6276 117.376 77.0098 116.238 77.4953 115.644C77.6926 115.982 78.0775 116.245 78.2867 116.762C77.5921 118.424 77.3533 119.837 77.006 121.46C77.2271 122.155 77.5152 121.223 77.8211 121.351C77.5705 122.585 76.6706 121.677 76.0233 122.47C75.7529 121.294 76.5561 121.006 77.0415 120.412C76.3113 119.953 77.4007 118.967 76.9092 118.68C76.8619 117.965 76.5737 118.897 76.2146 118.757C76.5264 118.183 75.8198 118.081 76.3033 117.721C76.8224 117.897 76.5244 118.417 77.3158 117.95ZM73.4199 116.188C73.0726 116.227 73.0489 115.87 73.0114 115.568C73.2502 115.739 73.3824 115.886 73.4199 116.188ZM76.3427 114.62C76.3545 114.799 76.169 114.639 76.0072 114.837C76.0486 114.671 76.169 114.639 76.3427 114.62ZM77.9018 114.914C77.0749 114.844 77.2545 115.707 77.1716 116.04C76.6388 115.919 76.7157 114.704 77.0512 114.487C77.9551 114.926 77.6985 113.695 77.955 113.342C78.2255 114.518 78.8964 112.499 79.1786 113.854C77.8307 113.842 79.1136 115.247 78.1485 115.733C77.8407 115.839 77.9255 115.272 77.9018 114.914ZM77.14 113.451C76.9545 113.291 77.3136 113.431 77.14 113.451V113.451ZM77.1991 112.76C77.1755 112.403 77.1636 112.224 77.1399 111.866C77.3136 111.847 77.4873 111.828 77.6609 111.808C77.6846 112.166 77.6965 112.345 77.734 112.646C77.5465 112.721 77.3728 112.741 77.1991 112.76ZM77.6372 111.451C77.7379 110.593 77.8701 112.325 77.6372 111.451V111.451ZM76.8222 111.56C76.8695 110.69 77.0551 112.434 76.8222 111.56V111.56ZM74.0948 112.116C74.0711 111.759 73.8974 111.778 73.8737 111.42C74.221 111.382 74.4184 111.72 74.2684 112.097L74.0948 112.116C74.1066 112.295 73.8126 112.346 74.0948 112.116ZM77.9352 110.932C77.726 110.415 78.7621 111.001 78.5411 110.306C78.7147 110.286 78.5648 110.663 78.9121 110.625C77.9471 111.11 79.2181 112.337 78.7859 112.943C78.4267 112.803 78.0793 112.842 78.03 112.361C78.697 112.395 78.5648 110.663 77.9352 110.932ZM76.8458 110.333C76.9464 109.475 77.0669 111.028 76.8458 110.333V110.333ZM78.8173 107.61C79.1172 106.857 78.1107 107.509 78.4087 106.99C78.9297 106.932 78.9534 107.289 79.583 107.021C78.8272 108.023 79.4449 109.161 78.8233 110.076C79.4173 109.272 78.4029 109.277 78.5173 108.364C78.0082 108.601 78.0318 108.958 77.9608 109.47C77.5898 109.152 77.2306 109.012 77.0076 108.55C78.4443 109.11 77.4555 107.654 78.8173 107.61ZM74.8308 108.703C74.0887 108.066 74.7222 107.329 74.8366 106.416C75.2076 106.734 74.9689 108.147 74.8308 108.703ZM79.4921 105.122C79.4803 104.944 79.6539 104.924 79.6421 104.746C79.8158 104.726 79.9894 104.707 80.1631 104.687C80.1335 105.033 79.7862 105.072 79.4921 105.122ZM80.0624 103.96C79.1704 103.7 80.015 103.246 79.9657 102.765C80.5952 102.497 80.1749 103.282 80.3979 103.743C80.2243 103.762 80.0368 103.837 80.0624 103.96ZM78.8705 106.038C77.635 105.347 78.4678 103.13 79.0855 102.683C79.6776 103.697 78.2527 104.9 78.8705 106.038ZM78.0474 102.331C78.0593 102.509 77.7119 102.548 77.5382 102.567C77.5264 102.389 77.8737 102.35 78.0474 102.331ZM80.3979 102.159C79.4091 102.287 79.7564 100.664 80.2656 100.427C80.984 100.707 80.163 101.519 80.3979 102.159ZM78.5803 102.451C79.5453 101.966 78.2625 100.56 79.7604 100.195C79.2749 100.789 79.2986 101.147 79.5335 101.787C79.1861 101.826 79.2473 102.485 78.5803 102.451ZM75.687 100.505C75.4995 100.58 75.6988 100.684 75.687 100.505V100.505ZM80.1807 99.41C80.4156 100.05 79.413 100.234 79.2038 99.717C79.1544 99.2364 79.8333 99.4488 80.1807 99.41ZM80.157 99.0526C80.1333 98.6951 80.2951 98.497 80.2833 98.3183C80.605 98.1564 80.7017 99.3519 80.157 99.0526ZM78.9452 98.7196C78.7597 98.5602 79.1308 98.879 78.9452 98.7196V98.7196ZM75.7639 99.2905L75.7402 98.933C75.9139 98.9136 75.9139 98.9136 76.0876 98.8943L76.1113 99.2517C75.9376 99.2711 75.9376 99.2711 75.7639 99.2905ZM79.5866 98.6301C79.5748 98.4513 79.5511 98.0939 79.5392 97.9152C80.0366 97.4996 80.1313 98.9294 79.5866 98.6301ZM81.57 97.6707C81.42 98.0475 81.2227 97.7094 81.049 97.7288C81.0371 97.5501 81.5582 97.492 81.57 97.6707ZM79.8549 93.7028C79.8549 93.7028 80.0404 93.8622 79.8549 93.7028V93.7028ZM79.5194 93.9203C80.4233 94.3596 80.8554 93.7533 80.585 92.5771C80.7587 92.5578 81.106 92.519 81.2797 92.4996C81.2383 94.2507 80.7529 96.4294 80.6997 98.0018C80.5023 97.6637 79.8076 97.7412 79.7464 97.0818C81.6154 97.0355 79.0694 95.0508 80.6029 95.2219C80.1825 94.4225 80.0463 94.7438 79.4168 95.012C79.622 94.413 79.2747 94.4517 79.5194 93.9203ZM80.4903 92.7317C80.6995 93.2485 79.8312 93.3454 79.7956 92.8092C79.9574 92.6111 80.4785 92.553 80.4903 92.7317ZM79.0161 91.8699C78.8661 92.2467 78.6687 91.9086 78.495 91.9279C78.5365 91.7613 79.0042 91.6911 79.0161 91.8699ZM79.3989 92.3673C79.1779 91.6718 79.7107 91.7924 79.4877 91.3311C79.6614 91.3118 80.0087 91.273 80.1824 91.2536C80.0462 91.5749 80.2929 92.3936 79.3989 92.3673ZM79.8251 89.2949C79.9514 88.5607 80.5809 88.2924 80.3224 87.295C80.6579 87.0775 81.1986 87.8454 81.3111 87.1667C81.1967 88.0797 82.5645 92.0863 80.3896 92.0048C80.2929 90.8092 80.729 89.7343 79.8251 89.2949ZM80.35 87.1839C80.1289 86.4883 80.3144 86.6477 80.6124 86.1283C80.9321 86.2007 81.1907 87.1981 80.35 87.1839ZM80.0322 85.2928C79.8348 84.9547 79.0435 85.4211 79.1283 84.8534C79.6375 84.6166 80.117 84.7252 80.0322 85.2928ZM80.5768 84.0077C80.7268 83.6309 81.5537 83.7007 81.8892 83.4833C81.4807 84.4471 81.6386 84.7175 82.2189 85.5531C81.3426 85.0026 81.9071 86.128 81.6486 86.715C80.9183 86.2563 80.6716 85.4375 80.4506 84.742C80.9597 84.5052 81.019 85.3988 81.4512 84.7924C81.309 84.2321 81.1117 83.8941 80.5768 84.0077ZM80.9616 82.6865C80.715 83.4522 80.0854 82.136 80.9616 82.6865V82.6865ZM82.2128 81.5027C82.1536 80.609 82.1892 82.7296 82.2128 81.5027V81.5027ZM80.3616 81.0249C80.2235 81.5805 79.5466 81.1338 79.6433 80.7449C80.1386 80.5636 80.0143 81.0636 80.3616 81.0249ZM78.1729 79.4145C77.6519 79.4726 77.6164 78.9364 77.3934 78.4751C78.0347 78.3856 78.0841 78.8663 78.1729 79.4145ZM80.0713 75.8539C80.0832 76.0326 79.7358 76.0713 79.7358 76.0713C79.724 75.8926 79.8977 75.8732 80.0713 75.8539ZM78.7116 75.6634C78.1787 75.5428 78.453 74.666 78.6267 74.6466C79.1063 74.7552 78.5142 75.3253 78.7116 75.6634ZM77.5965 74.9416C77.7109 74.0286 77.8432 75.7603 77.5965 74.9416V74.9416ZM77.1524 73.7848C77.4998 73.746 77.6616 73.5479 77.6379 73.1905C77.9971 73.3305 78.4411 74.4873 77.5728 74.5841C77.5372 74.0479 77.1899 74.0867 77.1524 73.7848ZM81.731 73.7063C81.0482 73.9625 80.7896 72.965 81.1133 72.5688C81.4863 72.6533 81.6955 73.1701 81.731 73.7063ZM81.7487 71.5977C81.6106 72.1533 80.9336 71.7066 81.0303 71.3177C81.5395 71.0809 81.4013 71.6365 81.7487 71.5977ZM78.4292 72.7241C77.5609 72.821 77.4879 71.9829 77.4523 71.4467C78.147 71.3692 78.0464 72.2267 78.4292 72.7241ZM77.7641 70.8718C77.7878 71.2292 77.5904 70.8911 77.4168 70.9105C77.4049 70.7318 77.7523 70.693 77.7641 70.8718ZM77.5174 70.0531C77.6437 69.3188 77.4405 71.268 77.5174 70.0531V70.0531ZM81.2217 69.1898C81.269 68.3203 81.4546 70.0641 81.2217 69.1898V69.1898ZM80.6337 72.4603C80.0396 71.6803 80.454 70.0137 80.2803 68.4486C80.898 69.586 80.6336 70.8758 80.6337 72.4603ZM77.62 68.9613C77.6437 69.3188 77.4463 68.9807 77.2726 69.0001C77.247 68.8769 77.6081 68.7826 77.62 68.9613ZM81.4427 68.301C80.675 69.1248 80.6631 67.3616 81.5315 67.2648C81.7545 67.726 80.9631 68.1924 81.4427 68.301ZM76.9824 65.4135C76.9587 65.056 77.306 65.0172 77.2823 64.6598C77.7619 64.7684 77.2883 65.5414 76.9824 65.4135ZM81.1051 63.9994C80.9195 63.8401 81.2906 64.1588 81.1051 63.9994V63.9994ZM81.328 62.8763C80.8189 63.1131 80.9452 62.3788 80.9076 62.0769C81.2668 62.2169 81.2905 62.5744 81.328 62.8763ZM81.2194 61.502C80.3432 60.9516 80.9016 59.6109 80.4812 58.8116C80.8286 58.7728 80.8404 58.9516 81.0141 58.9322C80.9253 59.9684 80.9609 60.5046 81.2194 61.502ZM80.5108 56.8818C80.6371 56.1475 80.0904 56.0824 80.2167 55.3482C80.8462 55.0799 80.4752 56.3456 80.6844 56.8624L80.5108 56.8818C80.7081 57.2199 80.7318 57.5773 80.7812 58.0579C79.978 58.3456 80.199 57.4567 80.3371 56.9011L80.5108 56.8818ZM77.8023 32.9133C78.0765 32.0365 78.2088 33.7682 77.8023 32.9133V32.9133ZM79.5885 37.9535C78.7535 34.0675 78.3271 29.2178 76.1936 25.8007C76.1462 25.0858 76.2824 24.7645 76.4323 24.3877C75.4791 23.4677 75.1968 22.1128 75.0764 20.5599C74.0758 20.5094 74.1113 19.4612 74.052 18.5675C71.4369 13.6918 68.362 9.53348 64.0478 6.73773C63.2683 7.38281 62.8499 6.34918 62.1058 5.94602C59.4455 6.45876 57.5804 2.86775 54.3379 4.36366C54.0912 3.54495 52.99 4.35194 52.5933 3.91005C52.4315 4.10814 52.2815 4.48496 51.946 4.70243C50.1896 4.07009 50.4067 6.81861 49.8364 7.98051C52.5343 9.35409 54.7447 11.5562 58.2576 11.2365C58.2339 10.879 58.0602 10.8984 58.0227 10.5965C58.7174 10.519 58.6167 9.79207 59.3233 9.89333C61.3659 9.82758 64.2552 12.2421 65.6881 14.855C66.1085 15.6544 66.1677 16.548 66.5881 17.3474C67.4269 19.1803 68.7473 20.8876 69.448 23.2761C69.7065 24.2736 69.9888 25.6284 70.4191 26.8408C72.5961 34.6102 73.5516 41.6335 74.5899 48.3236C74.5011 49.3598 74.584 50.6109 75.0044 51.4102C74.742 52.4657 75.4959 53.2819 74.9513 54.567C76.2223 57.378 74.768 62.0954 76.3074 64.7325C75.9483 66.1769 75.7806 68.6623 76.3865 69.621C75.4295 72.3385 76.4361 76.4393 76.083 80.3498C76.4303 80.311 76.4659 80.8472 77.0954 80.5789C77.5927 80.1634 77.3835 79.6466 78.2341 80.0739C77.9874 79.2551 78.5084 79.197 78.2755 78.3228C77.4723 78.6104 77.2631 78.0936 76.7164 78.0285C78.0406 77.6828 76.5723 76.1181 77.6991 75.4342C77.5985 76.2917 78.2932 76.2142 78.6524 76.3542C78.9842 84.5274 77.7984 92.2397 78.0473 99.1618C77.5263 99.2199 77.2559 99.6282 77.2915 100.164C78.1065 100.055 77.3152 100.522 78.0217 100.623C77.848 100.642 77.6743 100.662 77.327 100.701C77.0646 103.341 76.5496 105.865 76.7057 109.538C76.3583 109.577 76.3346 109.219 75.9873 109.258C75.4782 111.079 76.8578 113.68 75.1743 113.886C75.5652 116.615 73.868 118.461 74.5707 120.615C73.7674 120.903 73.8267 121.796 73.7261 122.654C74.3556 122.386 74.7267 122.704 74.4563 123.113C74.109 123.151 73.9116 122.813 73.7261 122.654C73.5524 122.673 73.5643 122.852 73.3906 122.871C73.0315 124.316 73.0788 125.031 72.8401 126.444C71.6046 124.169 73.8148 121.618 73.3964 119C74.3909 116.584 74.827 113.925 74.4125 110.838C74.2506 111.036 74.0651 110.877 74.0651 110.877C74.3651 110.123 73.7947 109.701 74.5979 109.413C74.4479 109.79 74.298 110.167 74.5091 110.449C75.4011 109.126 75.6043 107.176 75.3595 104.539C76.6364 103.478 75.3654 102.252 75.5745 101.184C75.7482 101.165 76.1074 101.305 76.2929 101.464C76.3698 100.249 76.1369 99.3749 76.8789 98.4279C76.6816 98.0898 75.7165 98.5755 75.6928 98.2181C76.3638 97.7832 76.2375 96.933 76.3756 96.3775C76.5493 96.3581 76.9697 97.1574 77.2025 96.4473C76.6697 96.3267 76.4348 95.6867 76.2374 95.3486C75.9375 96.1022 75.9256 95.9235 75.2842 96.013C75.2073 97.2279 74.8837 97.6241 75.4284 99.5079C74.4752 100.172 74.5838 101.547 74.8542 102.723C74.1596 102.8 74.0866 103.547 73.9622 104.047C74.3413 106.597 73.5204 108.993 72.7231 111.747C73.0823 111.887 73.4415 112.027 73.4909 112.507C73.1672 112.904 73.0429 113.404 72.2022 113.389C72.2614 114.283 73.2403 113.742 73.191 114.846C71.6575 114.674 72.52 116.865 71.405 117.727C71.926 117.669 71.6261 118.423 72.1728 118.488C72.7786 117.862 71.9142 117.491 72.5319 117.044C72.9266 117.72 72.6168 118.06 73.1733 118.538C72.4787 118.616 72.5793 119.343 72.455 119.843L72.6287 119.824C73.3845 118.821 72.5518 121.038 72.455 119.843L72.2813 119.862C71.8077 120.635 71.8196 122.398 72.5991 121.753C72.1137 122.348 72.4492 123.715 71.7901 124.328C71.7664 123.971 71.5927 123.99 71.4191 124.01C71.4546 124.546 71.1191 124.763 70.7836 124.981C70.9691 125.14 71.0047 125.676 71.5632 125.92C71.5395 125.563 71.3421 125.224 71.6895 125.186C71.8868 125.524 71.8987 125.703 71.5632 125.92C71.8218 126.917 70.4363 126.604 70.683 127.422C70.7304 128.137 71.2889 126.797 71.2159 127.543C71.139 128.758 70.0772 128.048 70.0003 129.263C70.3476 129.224 70.7679 128.439 70.8272 129.333C69.503 129.679 69.3116 131.807 70.0181 131.908C69.9531 133.301 69.1617 133.768 68.5262 134.739C68.9091 135.236 69.1479 133.823 69.5268 134.789C68.921 135.415 69.521 137.077 68.3586 137.224C68.4553 138.42 68.3409 139.333 66.993 139.321C66.693 140.075 67.808 139.212 67.9107 139.705C66.7187 141.782 67.0129 144.9 65.2387 146.377C65.5979 146.517 65.3236 147.393 65.5328 147.91C64.5441 148.038 65.0119 149.553 63.735 149.029C63.7587 149.386 63.585 149.406 63.6087 149.763C63.9797 150.082 64.2146 149.138 64.4238 149.654C64.5087 150.671 62.849 152.819 63.1056 154.051C62.9438 154.249 62.6083 154.466 62.3142 154.517C61.6019 158.287 59.4449 160.85 58.5589 164.64C58.0379 164.698 57.888 165.075 57.5939 165.126C57.6669 165.964 57.5644 167.056 56.2401 167.402C56.1633 170.201 53.2386 172.003 52.467 174.88C51.4783 175.008 51.1783 175.762 50.6929 176.356C50.6692 175.999 50.1481 176.057 50.2725 175.557C51.6262 173.282 52.8063 171.025 53.6391 168.808C53.9983 168.948 54.4897 169.235 54.616 168.501C53.2917 168.847 54.4837 166.769 54.9159 167.747C55.4132 167.332 54.533 167.25 54.4837 166.769C54.8073 166.373 55.1547 166.334 55.6461 166.622C55.7961 166.245 56.5637 165.421 55.723 165.407C55.7586 165.943 55.7961 166.245 55.4487 166.283C55.2277 165.588 55.575 165.549 55.5256 165.069C54.9198 165.694 55.0402 165.663 54.3988 165.752C52.4273 168.475 50.9729 171.608 48.2337 173.57C46.8364 173.078 45.5615 172.319 45.0819 170.626C43.5426 172.743 47.2292 173.988 47.4385 176.089C50.1107 177.34 52.0607 180.363 55.6366 178.884C57.0377 175.739 60.9926 173.641 61.1839 169.929C61.3694 170.088 61.3931 170.446 61.9141 170.388C61.6931 169.692 61.8549 169.494 62.3878 169.615C62.514 168.88 61.8312 169.137 61.7937 168.835C63.7771 167.875 64.5368 164.82 64.8722 163.018C65.0459 162.999 65.0696 163.356 65.4169 163.317C65.6794 162.262 65.0754 161.069 65.6793 160.677C65.6556 160.32 65.9911 160.102 66.1885 160.44C67.639 159.36 67.0212 158.223 66.9363 157.206C67.4573 157.148 67.1574 157.902 67.6784 157.844C66.8751 156.547 68.3612 156.003 68.8111 154.873C68.2171 154.093 68.1697 153.378 68.8288 152.764C68.9551 152.03 69.0794 151.53 69.0557 151.172C69.403 151.134 69.6004 151.472 69.8826 151.242C70.3444 150.29 71.0746 149.165 70.3187 148.583C70.6305 148.008 70.6897 148.902 71.3193 148.633C71.0982 147.938 71.8166 148.218 71.5817 147.578C71.1988 147.08 70.7903 148.044 70.5693 147.349C71.0903 147.29 70.6955 146.614 71.2166 146.556C71.4021 146.716 71.4021 146.716 71.7494 146.677C72.0849 146.459 71.8382 145.641 72.1737 145.423C71.3349 145.175 72.0731 146.281 71.406 146.247C71.185 145.551 71.3093 145.051 71.6448 144.834C71.9921 144.795 72.1658 144.776 72.4598 144.725C72.4124 144.01 72.598 144.17 72.3631 143.53C73.6992 143.363 72.8959 142.066 73.3814 141.471C73.034 141.51 72.4163 141.957 72.3808 141.421C72.6689 140.489 73.8431 140.52 74.1293 139.822C73.9319 139.484 73.3142 139.931 73.2116 139.438C73.3497 138.882 74.5239 138.913 74.2772 138.095C73.3003 138.402 73.6358 136.6 74.1568 136.542C74.0976 135.648 74.3955 135.129 74.6659 134.72C74.5159 135.097 74.8633 135.059 75.0369 135.039C75.0132 134.682 75.6665 134.771 75.5105 134.266C75.4632 133.551 74.51 134.216 74.5691 133.525C75.2401 133.09 75.0902 133.467 75.7316 133.377C75.4986 132.503 75.8203 132.341 76.2762 132.092C75.4137 131.486 76.9116 131.121 76.4913 130.322C76.1321 130.182 75.3407 130.648 75.317 130.291C75.7413 129.037 76.1616 128.252 77.1385 127.945C76.7912 127.984 76.2701 128.042 76.3116 127.875C77.0299 126.571 75.9326 125.325 77.912 124.834C78.212 124.08 77.691 124.138 77.9889 123.619C77.7916 123.281 77.2943 123.696 77.0712 123.235C78.06 123.107 78.7191 122.493 78.425 120.96C78.0777 120.998 77.9277 121.375 77.7303 121.037C77.3593 120.718 77.8191 120.001 78.4486 119.733C78.3105 120.288 78.8809 120.711 78.8315 120.23C78.2987 120.109 79.2025 118.964 78.5374 118.696C78.3637 118.716 78.1901 118.735 78.1782 118.556C78.3519 118.537 78.5256 118.518 78.5374 118.696C78.7111 118.677 78.6992 118.498 79.0466 118.46C79.3702 116.479 79.5734 114.53 79.7707 113.283C79.9443 113.264 79.9799 113.8 80.1536 113.781C79.9068 112.962 81.0456 112.457 80.1949 112.03C80.2068 112.209 79.6976 112.445 79.6739 112.088C80.4653 111.622 79.5772 110.892 80.7771 111.047C80.8659 110.01 80.9803 109.098 80.2619 108.818C80.4119 108.441 81.3651 107.776 80.6211 107.373C80.6329 107.552 80.2974 107.769 80.2856 107.591C80.2737 107.412 80.4356 107.214 80.6211 107.373C80.7592 106.818 81.2269 106.747 81.2447 106.223C80.6999 105.924 80.4651 106.868 80.3763 106.32C80.4651 105.284 81.0709 104.658 81.5327 103.706C81.359 103.726 80.988 103.407 80.9762 103.228C81.2761 102.475 81.6945 101.924 81.8089 101.011C81.7734 100.475 81.1024 100.91 81.053 100.429C81.5385 99.8348 82.0062 99.7646 81.424 99.1633C81.5858 98.9653 81.7595 98.9459 82.1069 98.9071C82.245 98.3516 81.1536 97.9872 81.8127 97.3735C81.9509 96.818 81.4417 97.0548 81.5542 96.3761C81.9134 96.5161 81.9627 96.9967 82.3929 96.6246C82.1225 95.4485 82.2843 95.2504 81.6547 93.9342C82.4698 93.8253 82.079 92.6806 82.5349 92.4317C82.3375 92.0936 81.8165 92.1517 81.779 91.8498C82.1875 90.886 82.2763 89.8498 81.8322 88.693C81.9822 88.3162 82.8091 88.386 82.7617 87.6711C81.4019 87.4807 82.8997 85.5311 81.838 84.8213C82.5208 84.5651 82.7793 83.9781 83.0654 83.28C83.0299 82.7439 82.3589 83.1788 82.3095 82.6982C82.645 82.4807 82.9154 82.0725 83.2134 81.5531C83.0279 81.3937 82.3983 81.662 82.3214 81.2925C83.2627 80.4493 82.5719 80.0582 82.1654 79.2033C82.6627 78.7878 82.5246 79.3433 82.9686 78.9157C82.7219 78.097 81.9561 77.1021 82.7632 76.3459C82.1337 76.6142 82.3685 75.6697 81.9126 75.9186C80.8095 76.9599 80.3497 77.6773 80.6675 79.5684C81.1766 79.3316 81.3503 79.3122 81.7056 79.9208C81.2082 80.3363 80.9754 81.0465 81.4057 82.2588C80.6991 82.1576 81.2912 83.1718 80.4525 82.9233C80.2234 79.996 80.1029 76.8586 80.1443 73.5231C80.3416 73.8612 80.4029 74.5205 80.7739 74.8393C80.6121 75.0374 80.2884 75.4335 80.3378 75.9142C81.3502 76.1434 81.812 75.1916 82.8125 75.2421C81.5297 73.8367 83.1775 71.5104 81.9657 69.593C82.1394 69.5736 82.313 69.5543 82.4867 69.5349C82.613 68.8006 81.9302 69.0568 81.8808 68.5762C82.0308 68.1994 82.5104 68.3079 82.3544 67.8032C81.8018 65.2721 82.7608 62.3204 81.2924 59.1713C81.2568 58.6351 82.0956 58.8836 81.9278 58.2001C80.8897 57.8478 81.1009 56.5459 81.76 55.9322C80.3627 55.4399 82.125 52.2005 80.5303 51.3701C81.7696 50.0076 79.5749 45.9312 80.2459 43.9118C80.2696 44.2693 80.4432 44.2499 80.8024 44.3899C80.8912 43.3537 80.0465 43.808 79.8492 43.4699C79.7406 42.0957 80.5083 41.2718 79.7405 40.5112C79.405 40.7287 79.4287 41.0861 79.0459 40.5887C79.184 40.0331 79.6517 39.963 79.7405 40.5112C80.8476 39.0014 78.659 38.9754 79.5885 37.9535Z" fill="black"/>
<path d="M34.1098 154.664C34.2729 154.7 34.3816 154.725 34.3393 154.894C34.148 154.969 34.1903 154.801 34.1098 154.664ZM37.5391 164.352C36.7899 164.362 38.2036 164.68 37.5391 164.352V164.352ZM29.4303 143.088C29.9317 143.38 28.6812 143.098 29.4303 143.088V143.088ZM31.6422 148.699C31.9361 149.359 31.1691 148.295 31.6422 148.699V148.699ZM32.9464 152.202C33.7661 151.911 33.762 152.386 34.1264 152.765C33.5482 153.467 32.8837 153.139 32.9464 152.202C32.3142 151.287 32.1756 150.008 32.1195 148.628C33.4203 149.396 32.1129 150.945 33.5225 151.737C33.4519 152.019 33.18 151.958 32.9464 152.202ZM33.7877 154.116C34.2227 154.213 34.7664 154.336 34.4622 154.862L34.2991 154.825C34.1579 155.388 33.5258 154.473 34.0695 154.595C34.1803 154.382 33.6084 154.372 33.7877 154.116C33.6951 153.798 33.1232 153.788 33.3851 153.431C33.8201 153.528 33.9006 153.665 33.7877 154.116ZM34.7843 155.41C34.9432 155.921 34.8021 156.484 34.1376 156.156C34.0451 155.838 33.9786 155.645 34.2405 155.288C34.4418 155.63 34.4037 155.324 34.7843 155.41ZM35.0358 156.239C35.064 156.127 34.8727 156.203 35.0358 156.239V156.239ZM34.4597 156.704C35.0316 156.714 35.4563 157.998 36.0925 158.439C35.9012 158.515 35.6293 158.454 35.6576 158.341C35.2649 158.074 35.6372 159.109 35.1097 158.693C35.1703 157.994 34.7394 157.421 34.4597 156.704ZM35.3894 159.41C35.6231 159.165 35.7319 159.19 35.9656 158.945C36.0863 159.151 35.9614 159.42 35.9332 159.532C35.8244 159.508 35.5526 159.447 35.3894 159.41ZM35.8626 159.814C36.0216 160.325 36.5653 160.448 36.8492 160.69C36.7786 160.971 36.7363 161.14 36.6658 161.421C36.0012 161.093 35.6368 160.714 35.8626 159.814ZM36.8144 163.119C37.5635 163.11 36.6732 163.682 36.8144 163.119C36.6512 163.083 36.5848 162.889 36.7762 162.813C36.5467 162.584 36.2748 162.522 36.3736 162.128C36.8086 162.226 37.1186 162.593 36.7762 162.813C36.7218 162.801 36.8567 162.95 36.8144 163.119ZM37.7225 163.621C38.143 165.38 38.8536 166.669 38.3879 168.526C37.5968 167.1 37.6275 165.145 36.8364 163.719C36.9733 163.631 37.4083 163.729 37.7225 163.621ZM39.8925 167.795C39.8925 167.795 40.0556 167.832 40.1643 167.856C40.122 168.025 40.0938 168.137 40.0938 168.137C39.9306 168.101 39.8219 168.076 39.8219 168.076C39.8219 168.076 39.8501 167.964 39.8925 167.795ZM39.6073 172.368C39.7281 172.573 39.8086 172.71 39.7381 172.992C39.6032 172.842 39.5368 172.649 39.6073 172.368ZM39.4687 171.088C39.5613 171.406 40.3387 171.284 40.1714 171.722C40.1934 172.321 39.7584 172.223 39.1603 172.089C39.1101 171.602 39.5492 171.225 38.6793 171.029C38.9835 170.503 38.9333 170.016 38.5689 169.637C38.6394 169.356 39.0744 169.454 39.5094 169.552C38.6614 169.955 39.4347 170.308 39.9904 170.611C39.9743 170.905 39.7688 171.037 39.4687 171.088ZM40.469 173.513C40.3059 173.476 40.3482 173.307 40.3765 173.195C40.5537 173.175 40.5113 173.344 40.469 173.513ZM39.5335 177.702C39.1164 178.678 39.0101 176.811 39.5335 177.702V177.702ZM40.9642 174.516C41.4374 174.92 40.1445 174.807 40.9642 174.516V174.516ZM40.491 174.112C39.961 175.539 41.0567 174.834 41.417 175.688C41.004 176.189 40.4587 174.699 40.5973 175.979C40.0316 175.257 39.7136 174.235 39.8589 173.197C40.0058 173.527 40.0984 173.846 40.491 174.112ZM40.4844 176.429C41.2116 175.82 42.3671 177.626 41.0742 177.513C40.3391 177.467 40.8368 176.627 40.4844 176.429ZM41.9039 177.64C41.9923 178.433 40.9107 179.081 42.3526 179.287C42.2115 179.85 41.5752 179.409 41.261 179.517C41.2108 179.03 41.4063 178.48 41.0136 178.213C41.3681 178.174 41.3602 177.518 41.9039 177.64ZM42.0961 182.142C42.2592 182.179 42.0538 182.311 42.0961 182.142V182.142ZM41.4743 180.041C41.9757 180.332 42.1488 180.787 42.7046 181.09C42.4709 181.335 42.199 181.274 41.8184 181.188C41.9193 180.557 41.3755 180.434 41.4743 180.041ZM42.4846 182.884C42.69 182.751 42.6901 182.751 42.7606 182.47C43.1956 182.568 43.0827 183.018 43.1209 183.324C42.849 183.263 42.2771 183.253 42.4846 182.884C41.7495 182.837 42.6398 182.265 42.4846 182.884ZM43.4081 186.302C43.5169 186.326 43.2027 186.434 43.4081 186.302V186.302ZM43.4608 184.946C43.5816 185.152 43.7829 185.494 43.67 185.944C43.5069 185.908 43.2351 185.846 42.9632 185.785C43.0358 185.267 43.2695 185.022 43.4608 184.946ZM43.7863 188.23C43.9494 188.266 44.0581 188.291 44.0581 188.291C44.0158 188.46 43.9876 188.572 43.9452 188.741C43.9452 188.741 43.7821 188.704 43.6734 188.68C43.7157 188.511 43.7439 188.398 43.7863 188.23ZM43.8066 187.461C44.2416 187.559 44.6766 187.657 44.4811 188.207C44.4429 187.902 43.5144 188.168 43.8066 187.461ZM44.4931 188.389C45.075 188.817 43.7157 188.511 44.4931 188.389V188.389ZM45.0505 190.06C45.7574 190.219 44.8671 190.791 45.0505 190.06C44.9298 189.854 44.8492 189.717 44.9198 189.436C43.641 189.267 44.1748 188.971 45.1252 189.304C45.0547 189.585 45.1755 189.79 45.0505 190.06ZM45.0966 191.021C45.3303 190.776 45.5598 191.006 45.8317 191.068C45.8678 191.611 45.2315 191.17 45.0966 191.021ZM45.62 191.912C45.7831 191.948 45.7408 192.117 46.0127 192.178C45.9703 192.347 45.9703 192.347 45.9421 192.46C45.4789 192.474 45.5494 192.193 45.62 191.912ZM46.2077 193.233C46.4373 193.463 46.5722 193.612 46.844 193.673C46.4593 194.062 46.7735 193.955 46.6606 194.405C46.0625 194.27 45.9699 193.952 46.2077 193.233ZM47.0873 195.452C47.7235 195.892 46.3099 195.574 47.0873 195.452V195.452ZM48.3255 204.945C50.4638 206.496 53.5693 206.482 55.8089 205.797C58.8658 206.663 61.6534 205.625 63.8428 204.453C65.4926 202.684 67.8451 201.549 69.4568 199.474C69.9121 198.804 70.1238 197.96 70.6335 197.301C71.5723 195.848 72.8092 194.581 73.8024 193.14C76.1898 189.575 78.3381 183.757 79.5131 180.216C79.6542 179.653 80.0389 179.264 79.88 178.753C80.156 178.34 80.8628 178.499 80.8831 177.73C79.794 176.118 77.1617 176.536 75.4422 175.377C74.7573 175.817 73.708 175.878 72.7293 175.658C71.3804 181.953 68.9582 187.948 65.747 192.278C63.4235 197.879 59.4593 201.089 55.1349 203.445C52.5528 204.351 50.0363 200.871 50.1093 198.748C48.9496 197.417 48.9139 195.269 47.6878 193.744C46.7224 188.89 44.6612 184.741 44.0925 179.678C42.7739 177.836 42.7423 175.213 42.1629 172.943C41.0455 171.443 41.4066 169.087 40.4524 167.624C39.951 167.332 39.8381 167.783 39.4737 167.403C39.6148 166.841 40.2511 167.281 40.3922 166.718C40.0701 166.17 39.8306 165.522 39.3031 165.106C39.8331 163.68 38.8788 162.216 38.1118 161.152C37.7158 158.15 36.5383 155.745 35.2944 153.147C34.3708 149.729 33.4734 146.435 30.9889 143.974C31.0457 142.144 29.151 140.767 27.7797 140.28C27.9428 140.316 27.981 140.622 27.6668 140.73C25.8546 139.252 22.2461 137.608 20.9142 140.4C20.91 140.874 21.4799 141.121 21.504 141.484C22.3196 141.667 22.3478 141.554 23.0264 141.826C24.2243 143.463 25.7766 145.061 26.1124 147.157C26.3137 147.5 26.7487 147.598 26.7869 147.904C29.1415 154.319 32.0038 160.313 33.2769 167.377C34.1385 168.522 35.0263 169.791 34.6271 171.842C35.0903 171.827 35.4468 171.551 35.6058 172.062C35.2812 173.356 35.6415 174.21 36.2072 174.932L35.6594 175.284C36.4828 176.123 36.6032 177.934 36.6916 178.727C37.1266 178.825 37.5396 178.323 37.5616 178.922C37.491 179.204 36.9896 178.913 36.9855 179.387C38.6183 181.122 37.3367 184.401 39.1911 185.71C39.3373 189.25 40.6094 191.736 41.8534 194.334C41.6238 194.104 41.4607 194.067 41.2391 194.493C41.3599 194.699 41.9459 194.652 41.8754 194.933C41.3072 196.054 42.8475 197.471 43.5298 198.873C44.5725 201.128 46.0883 203.788 48.259 204.752C48.9862 204.143 50.6797 205.178 50.9474 205.713C49.8981 205.775 49.1311 204.71 48.3255 204.945Z" fill="black"/>
</svg>
