<svg width="38" height="39" viewBox="0 0 38 39" fill="none" xmlns="http://www.w3.org/2000/svg">
<mask id="mask0_475_3637" style="mask-type:alpha" maskUnits="userSpaceOnUse" x="0" y="0" width="38" height="39">
<rect y="0.544922" width="38" height="38" fill="#D9D9D9"/>
</mask>
<g mask="url(#mask0_475_3637)">
<path d="M17.8127 27.0654H20.1877V17.9613H17.8127V27.0654ZM19.0002 15.2696C19.3696 15.2696 19.6731 15.144 19.9106 14.8928C20.1481 14.6426 20.2668 14.3328 20.2668 13.9633C20.2668 13.6203 20.1481 13.3232 19.9106 13.0719C19.6731 12.8218 19.3696 12.6967 19.0002 12.6967C18.6307 12.6967 18.3272 12.8218 18.0897 13.0719C17.8522 13.3232 17.7335 13.6203 17.7335 13.9633C17.7335 14.3328 17.8522 14.6426 18.0897 14.8928C18.3272 15.144 18.6307 15.2696 19.0002 15.2696ZM19.0002 34.5863C16.9154 34.5863 14.9563 34.1904 13.1228 33.3988C11.2883 32.6071 9.69808 31.5383 8.35225 30.1925C7.00641 28.8467 5.93766 27.2565 5.146 25.4219C4.35433 23.5884 3.9585 21.6293 3.9585 19.5446C3.9585 17.4599 4.35433 15.5002 5.146 13.6657C5.93766 11.8322 7.00641 10.2425 8.35225 8.89668C9.69808 7.55085 11.2883 6.4821 13.1228 5.69043C14.9563 4.89876 16.9154 4.50293 19.0002 4.50293C21.0849 4.50293 23.0445 4.89876 24.8791 5.69043C26.7126 6.4821 28.3022 7.55085 29.6481 8.89668C30.9939 10.2425 32.0627 11.8322 32.8543 13.6657C33.646 15.5002 34.0418 17.4599 34.0418 19.5446C34.0418 21.6293 33.646 23.5884 32.8543 25.4219C32.0627 27.2565 30.9939 28.8467 29.6481 30.1925C28.3022 31.5383 26.7126 32.6071 24.8791 33.3988C23.0445 34.1904 21.0849 34.5863 19.0002 34.5863ZM19.0002 32.2113C22.5363 32.2113 25.5314 30.9842 27.9856 28.53C30.4397 26.0758 31.6668 23.0807 31.6668 19.5446C31.6668 16.0085 30.4397 13.0133 27.9856 10.5592C25.5314 8.10501 22.5363 6.87793 19.0002 6.87793C15.4641 6.87793 12.4689 8.10501 10.0147 10.5592C7.56058 13.0133 6.3335 16.0085 6.3335 19.5446C6.3335 23.0807 7.56058 26.0758 10.0147 28.53C12.4689 30.9842 15.4641 32.2113 19.0002 32.2113Z" fill="#E61C21"/>
</g>
</svg>
