<svg width="96" height="83" viewBox="0 0 96 83" fill="none" xmlns="http://www.w3.org/2000/svg">
<g clip-path="url(#clip0_209_3529)">
<path d="M12 14.2521C13.3807 14.2521 14.5 13.1328 14.5 11.7521C14.5 10.3714 13.3807 9.25214 12 9.25214C10.6193 9.25214 9.5 10.3714 9.5 11.7521C9.5 13.1328 10.6193 14.2521 12 14.2521Z" fill="black"/>
<path d="M19.3008 14.2521C20.6815 14.2521 21.8008 13.1328 21.8008 11.7521C21.8008 10.3714 20.6815 9.25214 19.3008 9.25214C17.9201 9.25214 16.8008 10.3714 16.8008 11.7521C16.8008 13.1328 17.9201 14.2521 19.3008 14.2521Z" fill="black"/>
<path d="M26.5 14.2521C27.8807 14.2521 29 13.1328 29 11.7521C29 10.3714 27.8807 9.25214 26.5 9.25214C25.1193 9.25214 24 10.3714 24 11.7521C24 13.1328 25.1193 14.2521 26.5 14.2521Z" fill="black"/>
<path d="M88.4 0.0529175H6.6C3 0.0529175 0 2.95292 0 6.65292V74.5529C0 78.1529 2.9 81.1529 6.6 81.1529H88.5C92.1 81.1529 95.1 78.2529 95.1 74.5529V6.65292C95 3.05292 92.1 0.0529175 88.4 0.0529175ZM6.6 5.15292H88.5C89.3 5.15292 90 5.85292 90 6.65292V18.3529H5.1V6.65292C5.1 5.85292 5.8 5.15292 6.6 5.15292ZM88.4 75.9529H6.6C5.8 75.9529 5.1 75.2529 5.1 74.4529V23.3529H89.9V74.4529C89.9 75.2529 89.2 75.9529 88.4 75.9529Z" fill="black"/>
<path d="M33.9008 46.9525L36.7008 44.1525L39.5008 46.9525C40.0008 47.4525 40.6008 47.6525 41.3008 47.6525C42.0008 47.6525 42.6008 47.4525 43.1008 46.9525C44.1008 45.9525 44.1008 44.3525 43.1008 43.3525L40.3008 40.5525L43.1008 37.7525C44.1008 36.7525 44.1008 35.1525 43.1008 34.1525C42.1008 33.1525 40.5008 33.1525 39.5008 34.1525L36.7008 36.9525L33.9008 34.1525C32.9008 33.1525 31.3008 33.1525 30.3008 34.1525C29.3008 35.1525 29.3008 36.7525 30.3008 37.7525L33.1008 40.5525L30.3008 43.3525C29.3008 44.3525 29.3008 45.9525 30.3008 46.9525C30.8008 47.4525 31.4008 47.6525 32.1008 47.6525C32.8008 47.6525 33.4008 47.4525 33.9008 46.9525Z" fill="black"/>
<path d="M64.7004 34.2521C63.7004 33.2521 62.1004 33.2521 61.1004 34.2521L58.3004 37.0521L55.5004 34.2521C54.5004 33.2521 52.9004 33.2521 51.9004 34.2521C50.9004 35.2521 50.9004 36.8521 51.9004 37.8521L54.7004 40.6521L51.9004 43.4521C50.9004 44.4521 50.9004 46.0521 51.9004 47.0521C52.4004 47.5521 53.0004 47.7521 53.7004 47.7521C54.4004 47.7521 55.0004 47.5521 55.5004 47.0521L58.3004 44.2521L61.1004 47.0521C61.6004 47.5521 62.2004 47.7521 62.9004 47.7521C63.6004 47.7521 64.2004 47.5521 64.7004 47.0521C65.7004 46.0521 65.7004 44.4521 64.7004 43.4521L61.9004 40.5521L64.7004 37.7521C65.7004 36.8521 65.7004 35.2521 64.7004 34.2521Z" fill="black"/>
<path d="M47.5007 51.9533C40.6007 51.9533 34.4007 56.0533 31.6007 62.3533C31.0007 63.6533 31.6007 65.1533 32.9007 65.6533C34.2007 66.2533 35.7007 65.6533 36.2007 64.3533C38.1007 59.8533 42.5007 56.9533 47.4007 56.9533C52.2007 56.9533 56.6007 59.8533 58.5007 64.3533C58.9007 65.3533 59.9007 65.8533 60.8007 65.8533C61.1007 65.8533 61.5007 65.7533 61.8007 65.6533C63.1007 65.0533 63.7007 63.6533 63.1007 62.3533C60.6007 56.0533 54.4007 51.9533 47.5007 51.9533Z" fill="black"/>
</g>
<defs>
<clipPath id="clip0_209_3529">
<rect width="96" height="82" fill="white" transform="translate(0 0.0529175)"/>
</clipPath>
</defs>
</svg>
