<svg version="1.1" xmlns="http://www.w3.org/2000/svg" xmlns:xlink="http://www.w3.org/1999/xlink">

    <symbol viewBox="0 0 7 13" id="pager-prev">
        <path d="M6 1.14832L1 6.64832L6 12.1483" stroke-width="1.4" />
    </symbol>

    <symbol viewBox="0 0 7 13" id="pager-next">
        <path d="M1 12.1484L6 6.64844L1 1.14844" stroke-width="1.4" />
    </symbol>

    <symbol viewBox="0 0 22 16" id="header-bonus">
        <path d="M13.4167 0.438965C9.18083 0.438965 5.75 3.8698 5.75 8.10563C5.75 12.3415 9.18083 15.7723 13.4167 15.7723C17.6525 15.7723 21.0833 12.3415 21.0833 8.10563C21.0833 3.8698 17.6525 0.438965 13.4167 0.438965ZM13.4167 13.8556C10.2446 13.8556 7.66667 11.2777 7.66667 8.10563C7.66667 4.93355 10.2446 2.35563 13.4167 2.35563C16.5887 2.35563 19.1667 4.93355 19.1667 8.10563C19.1667 11.2777 16.5887 13.8556 13.4167 13.8556Z" />
        <path d="M1.91667 8.10573C1.91667 5.60448 3.51708 3.47698 5.75 2.69115V0.688232C2.44375 1.54115 0 4.53115 0 8.10573C0 11.6803 2.44375 14.6703 5.75 15.5232V13.5203C3.51708 12.7345 1.91667 10.607 1.91667 8.10573Z" />
    </symbol>

    <symbol viewBox="0 0 18 19" id="header-phone">
        <path d="M17.01 12.9371C15.78 12.9371 14.59 12.7371 13.48 12.3771C13.13 12.2571 12.74 12.3471 12.47 12.6171L10.9 14.5871C8.07 13.2371 5.42 10.6871 4.01 7.75713L5.96 6.09713C6.23 5.81713 6.31 5.42713 6.2 5.07713C5.83 3.96713 5.64 2.77713 5.64 1.54713C5.64 1.00713 5.19 0.557129 4.65 0.557129H1.19C0.65 0.557129 0 0.797129 0 1.54713C0 10.8371 7.73 18.5571 17.01 18.5571C17.72 18.5571 18 17.9271 18 17.3771V13.9271C18 13.3871 17.55 12.9371 17.01 12.9371Z" />
    </symbol>

    <symbol viewBox="0 0 20 17" id="header-telegram">
        <path d="M7.92951 11.0928L7.61136 15.5677C8.06655 15.5677 8.26368 15.3721 8.50009 15.1373L10.6342 13.0978L15.0561 16.3362C15.8671 16.7882 16.4385 16.5502 16.6573 15.5901L19.5599 1.98917L19.5607 1.98837C19.8179 0.789512 19.1271 0.320707 18.337 0.614812L1.27569 7.14682C0.111289 7.5988 0.128919 8.24791 1.07775 8.54202L5.43964 9.89875L15.5714 3.55907C16.0482 3.24332 16.4818 3.41802 16.1252 3.73377L7.92951 11.0928Z" />
    </symbol>

    <symbol viewBox="0 0 21 21" id="header-cart">
        <path d="M6.38281 16.439C5.28281 16.439 4.39281 17.339 4.39281 18.439C4.39281 19.539 5.28281 20.439 6.38281 20.439C7.48281 20.439 8.38281 19.539 8.38281 18.439C8.38281 17.339 7.48281 16.439 6.38281 16.439ZM0.382812 0.438965V2.43896H2.38281L5.98281 10.029L4.63281 12.479C4.47281 12.759 4.38281 13.089 4.38281 13.439C4.38281 14.539 5.28281 15.439 6.38281 15.439H18.3828V13.439H6.80281C6.66281 13.439 6.55281 13.329 6.55281 13.189L6.58281 13.069L7.48281 11.439H14.9328C15.6828 11.439 16.3428 11.029 16.6828 10.409L20.2628 3.91896C20.3428 3.77896 20.3828 3.60896 20.3828 3.43896C20.3828 2.88896 19.9328 2.43896 19.3828 2.43896H4.59281L3.65281 0.438965H0.382812ZM16.3828 16.439C15.2828 16.439 14.3928 17.339 14.3928 18.439C14.3928 19.539 15.2828 20.439 16.3828 20.439C17.4828 20.439 18.3828 19.539 18.3828 18.439C18.3828 17.339 17.4828 16.439 16.3828 16.439Z" />
    </symbol>

    <symbol viewBox="0 0 40 41" id="header-user">
        <path d="M20 0.105469C8.96 0.105469 0 9.06547 0 20.1055C0 31.1455 8.96 40.1055 20 40.1055C31.04 40.1055 40 31.1455 40 20.1055C40 9.06547 31.04 0.105469 20 0.105469ZM20 6.10547C23.32 6.10547 26 8.78547 26 12.1055C26 15.4255 23.32 18.1055 20 18.1055C16.68 18.1055 14 15.4255 14 12.1055C14 8.78547 16.68 6.10547 20 6.10547ZM20 34.5055C15 34.5055 10.58 31.9455 8 28.0655C8.06 24.0855 16 21.9055 20 21.9055C23.98 21.9055 31.94 24.0855 32 28.0655C29.42 31.9455 25 34.5055 20 34.5055Z" />
    </symbol>

    <symbol viewBox="0 0 24 25" id="header-user-edit">
        <path d="M3 18.0171V21.0571C3 21.3371 3.22 21.5571 3.5 21.5571H6.54C6.67 21.5571 6.8 21.5071 6.89 21.4071L17.81 10.4971L14.06 6.74713L3.15 17.6571C3.05 17.7571 3 17.8771 3 18.0171ZM20.71 7.59713C21.1 7.20713 21.1 6.57713 20.71 6.18713L18.37 3.84713C17.98 3.45713 17.35 3.45713 16.96 3.84713L15.13 5.67713L18.88 9.42713L20.71 7.59713Z" />
    </symbol>

    <symbol viewBox="0 0 24 25" id="header-logout">
        <path d="M17 8.55713L15.59 9.96713L17.17 11.5571H9V13.5571H17.17L15.59 15.1371L17 16.5571L21 12.5571L17 8.55713ZM5 5.55713H12V3.55713H5C3.9 3.55713 3 4.45713 3 5.55713V19.5571C3 20.6571 3.9 21.5571 5 21.5571H12V19.5571H5V5.55713Z" />
    </symbol>

    <symbol viewBox="0 0 25 25" id="cabinet-menu-bonus">
        <path d="M15.666 4.1145C11.246 4.1145 7.66602 7.6945 7.66602 12.1145C7.66602 16.5345 11.246 20.1145 15.666 20.1145C20.086 20.1145 23.666 16.5345 23.666 12.1145C23.666 7.6945 20.086 4.1145 15.666 4.1145ZM15.666 18.1145C12.356 18.1145 9.66602 15.4245 9.66602 12.1145C9.66602 8.8045 12.356 6.1145 15.666 6.1145C18.976 6.1145 21.666 8.8045 21.666 12.1145C21.666 15.4245 18.976 18.1145 15.666 18.1145Z" />
        <path d="M3.66602 12.1145C3.66602 9.50451 5.33602 7.28451 7.66602 6.46451V4.37451C4.21602 5.26451 1.66602 8.38451 1.66602 12.1145C1.66602 15.8445 4.21602 18.9645 7.66602 19.8545V17.7645C5.33602 16.9445 3.66602 14.7245 3.66602 12.1145Z" />
    </symbol>

    <symbol viewBox="0 0 25 25" id="cabinet-menu-profile">
        <path d="M12.666 2.1145C7.14602 2.1145 2.66602 6.5945 2.66602 12.1145C2.66602 17.6345 7.14602 22.1145 12.666 22.1145C18.186 22.1145 22.666 17.6345 22.666 12.1145C22.666 6.5945 18.186 2.1145 12.666 2.1145ZM7.73602 18.3945C8.16602 17.4945 10.786 16.6145 12.666 16.6145C14.546 16.6145 17.176 17.4945 17.596 18.3945C16.236 19.4745 14.526 20.1145 12.666 20.1145C10.806 20.1145 9.09602 19.4745 7.73602 18.3945ZM19.026 16.9445C17.596 15.2045 14.126 14.6145 12.666 14.6145C11.206 14.6145 7.73602 15.2045 6.30602 16.9445C5.28602 15.6045 4.66602 13.9345 4.66602 12.1145C4.66602 7.7045 8.25602 4.1145 12.666 4.1145C17.076 4.1145 20.666 7.7045 20.666 12.1145C20.666 13.9345 20.046 15.6045 19.026 16.9445ZM12.666 6.1145C10.726 6.1145 9.16602 7.6745 9.16602 9.6145C9.16602 11.5545 10.726 13.1145 12.666 13.1145C14.606 13.1145 16.166 11.5545 16.166 9.6145C16.166 7.6745 14.606 6.1145 12.666 6.1145ZM12.666 11.1145C11.836 11.1145 11.166 10.4445 11.166 9.6145C11.166 8.7845 11.836 8.1145 12.666 8.1145C13.496 8.1145 14.166 8.7845 14.166 9.6145C14.166 10.4445 13.496 11.1145 12.666 11.1145Z" />
    </symbol>

    <symbol viewBox="0 0 25 25" id="cabinet-menu-catalogue">
        <path d="M21.666 3.6145H3.66602C2.56602 3.6145 1.66602 4.5145 1.66602 5.6145V17.6145C1.66602 18.7145 2.56602 19.6145 3.66602 19.6145H8.66602V21.6145H16.666V19.6145H21.666C22.766 19.6145 23.666 18.7145 23.666 17.6145V5.6145C23.666 4.5145 22.766 3.6145 21.666 3.6145ZM21.666 17.6145H3.66602V5.6145H21.666V17.6145ZM19.666 8.6145H8.66602V10.6145H19.666V8.6145ZM19.666 12.6145H8.66602V14.6145H19.666V12.6145ZM7.66602 8.6145H5.66602V10.6145H7.66602V8.6145ZM7.66602 12.6145H5.66602V14.6145H7.66602V12.6145Z" />
    </symbol>

    <symbol viewBox="0 0 25 25" id="cabinet-menu-cart">
        <path d="M16.216 13.1145C16.966 13.1145 17.626 12.7045 17.966 12.0845L21.546 5.5945C21.916 4.9345 21.436 4.1145 20.676 4.1145H5.87602L4.93602 2.1145H1.66602V4.1145H3.66602L7.26602 11.7045L5.91602 14.1445C5.18602 15.4845 6.14602 17.1145 7.66602 17.1145H19.666V15.1145H7.66602L8.76602 13.1145H16.216ZM6.82602 6.1145H18.976L16.216 11.1145H9.19602L6.82602 6.1145ZM7.66602 18.1145C6.56602 18.1145 5.67602 19.0145 5.67602 20.1145C5.67602 21.2145 6.56602 22.1145 7.66602 22.1145C8.76602 22.1145 9.66602 21.2145 9.66602 20.1145C9.66602 19.0145 8.76602 18.1145 7.66602 18.1145ZM17.666 18.1145C16.566 18.1145 15.676 19.0145 15.676 20.1145C15.676 21.2145 16.566 22.1145 17.666 22.1145C18.766 22.1145 19.666 21.2145 19.666 20.1145C19.666 19.0145 18.766 18.1145 17.666 18.1145Z" />
    </symbol>

    <symbol viewBox="0 0 25 25" id="cabinet-menu-orders">
        <path d="M22.666 9.3545L15.476 8.7345L12.666 2.1145L9.85602 8.7445L2.66602 9.3545L8.12602 14.0845L6.48602 21.1145L12.666 17.3845L18.846 21.1145L17.216 14.0845L22.666 9.3545ZM12.666 15.5145L8.90602 17.7845L9.90602 13.5045L6.58602 10.6245L10.966 10.2445L12.666 6.2145L14.376 10.2545L18.756 10.6345L15.436 13.5145L16.436 17.7945L12.666 15.5145Z" />
    </symbol>

    <symbol viewBox="0 0 25 25" id="cabinet-menu-news">
        <path d="M16.666 3.1145H5.66602C4.56602 3.1145 3.66602 4.0145 3.66602 5.1145V19.1145C3.66602 20.2145 4.56602 21.1145 5.66602 21.1145H19.666C20.766 21.1145 21.666 20.2145 21.666 19.1145V8.1145L16.666 3.1145ZM19.666 19.1145H5.66602V5.1145H15.666V9.1145H19.666V19.1145ZM7.66602 17.1145H17.666V15.1145H7.66602V17.1145ZM12.666 7.1145H7.66602V9.1145H12.666V7.1145ZM7.66602 13.1145H17.666V11.1145H7.66602V13.1145Z" />
    </symbol>

    <symbol viewBox="0 0 25 25" id="cabinet-menu-rules">
        <path d="M11.666 7.1145H13.666V9.1145H11.666V7.1145ZM11.666 11.1145H13.666V17.1145H11.666V11.1145ZM12.666 2.1145C7.14602 2.1145 2.66602 6.5945 2.66602 12.1145C2.66602 17.6345 7.14602 22.1145 12.666 22.1145C18.186 22.1145 22.666 17.6345 22.666 12.1145C22.666 6.5945 18.186 2.1145 12.666 2.1145ZM12.666 20.1145C8.25602 20.1145 4.66602 16.5245 4.66602 12.1145C4.66602 7.7045 8.25602 4.1145 12.666 4.1145C17.076 4.1145 20.666 7.7045 20.666 12.1145C20.666 16.5245 17.076 20.1145 12.666 20.1145Z" />
    </symbol>

    <symbol viewBox="0 0 25 25" id="cabinet-menu-suggest">
        <path d="M9.66992 21.1145C9.66992 21.6645 10.1199 22.1145 10.6699 22.1145H14.6699C15.2199 22.1145 15.6699 21.6645 15.6699 21.1145V20.1145H9.66992V21.1145ZM12.6699 2.1145C8.80992 2.1145 5.66992 5.2545 5.66992 9.1145C5.66992 11.4945 6.85992 13.5845 8.66992 14.8545V17.1145C8.66992 17.6645 9.11992 18.1145 9.66992 18.1145H15.6699C16.2199 18.1145 16.6699 17.6645 16.6699 17.1145V14.8545C18.4799 13.5845 19.6699 11.4945 19.6699 9.1145C19.6699 5.2545 16.5299 2.1145 12.6699 2.1145ZM15.5199 13.2145L14.6699 13.8145V16.1145H10.6699V13.8145L9.81992 13.2145C8.46992 12.2745 7.66992 10.7445 7.66992 9.1145C7.66992 6.3545 9.90992 4.1145 12.6699 4.1145C15.4299 4.1145 17.6699 6.3545 17.6699 9.1145C17.6699 10.7445 16.8699 12.2745 15.5199 13.2145Z" />
    </symbol>

    <symbol viewBox="0 0 25 25" id="cabinet-menu-logout">
        <path d="M17.666 8.1145L16.256 9.5245L17.836 11.1145H9.66602V13.1145H17.836L16.256 14.6945L17.666 16.1145L21.666 12.1145L17.666 8.1145ZM5.66602 5.1145H12.666V3.1145H5.66602C4.56602 3.1145 3.66602 4.0145 3.66602 5.1145V19.1145C3.66602 20.2145 4.56602 21.1145 5.66602 21.1145H12.666V19.1145H5.66602V5.1145Z" />
    </symbol>

    <symbol viewBox="0 0 25 24" id="back-link">
        <path d="M9.38281 19L10.7928 17.59L6.21281 13H22.3828V11H6.21281L10.8028 6.41L9.38281 5L2.38281 12L9.38281 19Z" />
    </symbol>

    <symbol viewBox="0 0 24 25" id="profile-edit">
        <path d="M3 18.0128V21.0528C3 21.3328 3.22 21.5528 3.5 21.5528H6.54C6.67 21.5528 6.8 21.5028 6.89 21.4028L17.81 10.4928L14.06 6.74279L3.15 17.6528C3.05 17.7528 3 17.8728 3 18.0128ZM20.71 7.59279C21.1 7.20279 21.1 6.57279 20.71 6.18279L18.37 3.84279C17.98 3.45279 17.35 3.45279 16.96 3.84279L15.13 5.67279L18.88 9.42279L20.71 7.59279Z" />
    </symbol>

    <symbol viewBox="0 0 24 25" id="profile-cancel">
        <path d="M19 6.96273L17.59 5.55273L12 11.1427L6.41 5.55273L5 6.96273L10.59 12.5527L5 18.1427L6.41 19.5527L12 13.9627L17.59 19.5527L19 18.1427L13.41 12.5527L19 6.96273Z" />
    </symbol>

    <symbol viewBox="0 0 24 24" id="cart-row-remove">
        <path d="M14.59 8L12 10.59L9.41 8L8 9.41L10.59 12L8 14.59L9.41 16L12 13.41L14.59 16L16 14.59L13.41 12L16 9.41L14.59 8ZM12 2C6.47 2 2 6.47 2 12C2 17.53 6.47 22 12 22C17.53 22 22 17.53 22 12C22 6.47 17.53 2 12 2ZM12 20C7.59 20 4 16.41 4 12C4 7.59 7.59 4 12 4C16.41 4 20 7.59 20 12C20 16.41 16.41 20 12 20Z" />
    </symbol>

    <symbol viewBox="0 0 19 19" id="cart-row-inc">
        <path d="M9.94727 6.5L5.44727 11L6.50477 12.0575L9.94727 8.6225L13.3898 12.0575L14.4473 11L9.94727 6.5Z" />
    </symbol>

    <symbol viewBox="0 0 19 18" id="cart-row-dec">
        <path d="M9.94727 12L14.4473 7.5L13.3898 6.4425L9.94727 9.8775L6.50477 6.4425L5.44727 7.5L9.94727 12Z" />
    </symbol>

    <symbol viewBox="0 0 14 10" id="main-levels-arrow">
        <path d="M14 5.39115L0.21821 9.85536L0.21821 0.926943L14 5.39115Z" />
    </symbol>

    <symbol viewBox="0 0 25 25" id="faq-arrow">
        <path d="M6.5 9.76318L12.5 15.7632L18.5 9.76318" stroke-width="2" stroke-linecap="round" stroke-linejoin="round" />
    </symbol>

    <symbol viewBox="0 0 24 24" id="order-delivery-address">
        <path d="M12 2C7.8 2 4 5.22 4 10.2C4 13.52 6.67 17.45 12 22C17.33 17.45 20 13.52 20 10.2C20 5.22 16.2 2 12 2ZM12 12C10.9 12 10 11.1 10 10C10 8.9 10.9 8 12 8C13.1 8 14 8.9 14 10C14 11.1 13.1 12 12 12Z" />
    </symbol>

    <symbol viewBox="0 0 24 24" id="order-delivery-phone">
        <path d="M18.6451 14.8037C17.6248 14.8037 16.6377 14.6378 15.7169 14.3392C15.4266 14.2397 15.1031 14.3143 14.8791 14.5383L13.5768 16.1724C11.2293 15.0526 9.03109 12.9373 7.86148 10.5069L9.47902 9.12989C9.70299 8.89763 9.76935 8.57412 9.6781 8.2838C9.37118 7.36304 9.21358 6.37593 9.21358 5.35564C9.21358 4.9077 8.8403 4.53442 8.39236 4.53442H5.52227C5.07434 4.53442 4.53516 4.73351 4.53516 5.35564C4.53516 13.0618 10.9472 19.4656 18.6451 19.4656C19.234 19.4656 19.4663 18.943 19.4663 18.4867V15.6249C19.4663 15.177 19.093 14.8037 18.6451 14.8037Z" />
    </symbol>

    <symbol viewBox="0 0 26 8" id="back-link-auth">
        <path d="M0.646446 3.64644C0.451185 3.84171 0.451185 4.15829 0.646446 4.35355L3.82843 7.53553C4.02369 7.73079 4.34027 7.73079 4.53553 7.53553C4.7308 7.34027 4.7308 7.02369 4.53553 6.82843L1.70711 4L4.53553 1.17157C4.7308 0.976309 4.7308 0.659726 4.53553 0.464464C4.34027 0.269202 4.02369 0.269202 3.82843 0.464464L0.646446 3.64644ZM26 3.5L1 3.5L1 4.5L26 4.5L26 3.5Z" />
    </symbol>

    <symbol viewBox="0 0 20 12" id="up-link">
        <path d="M18 10L10 2L2 10" stroke-width="3" stroke-linecap="round" stroke-linejoin="round" />
    </symbol>

    <symbol viewBox="0 0 26 16" id="supervizor-main-link">
        <path d="M25.7071 8.47212C26.0976 8.08159 26.0976 7.44843 25.7071 7.0579L19.3431 0.693943C18.9526 0.303419 18.3195 0.303419 17.9289 0.693944C17.5384 1.08447 17.5384 1.71763 17.9289 2.10816L23.5858 7.76501L17.9289 13.4219C17.5384 13.8124 17.5384 14.4456 17.9289 14.8361C18.3195 15.2266 18.9526 15.2266 19.3431 14.8361L25.7071 8.47212ZM1.74846e-07 8.76501L25 8.76501L25 6.76501L-1.74846e-07 6.76501L1.74846e-07 8.76501Z" />
    </symbol>

    <symbol viewBox="0 0 25 24" id="icon-download">
        <path d="M14.2454 2H6.24536C5.71493 2 5.20622 2.21071 4.83115 2.58579C4.45607 2.96086 4.24536 3.46957 4.24536 4V20C4.24536 20.5304 4.45607 21.0391 4.83115 21.4142C5.20622 21.7893 5.71493 22 6.24536 22H18.2454C18.7758 22 19.2845 21.7893 19.6596 21.4142C20.0346 21.0391 20.2454 20.5304 20.2454 20V8L14.2454 2Z" stroke-width="2" stroke-linecap="round" stroke-linejoin="round" />
        <path d="M14.2454 2V8H20.2454" stroke-width="2" stroke-linecap="round" stroke-linejoin="round" />
        <path d="M16.2454 13H8.24536" stroke-width="2" stroke-linecap="round" stroke-linejoin="round" />
        <path d="M16.2454 17H8.24536" stroke-width="2" stroke-linecap="round" stroke-linejoin="round" />
        <path d="M10.2454 9H9.24536H8.24536" stroke-width="2" stroke-linecap="round" stroke-linejoin="round" />
    </symbol>

    <symbol viewBox="0 0 18 18" id="window-close">
        <path d="M16.5 1.25L1.5 16.25" stroke-width="2" stroke-linecap="round" stroke-linejoin="round" />
        <path d="M1.5 1.25L16.5 16.25" stroke-width="2" stroke-linecap="round" stroke-linejoin="round" />
    </symbol>

    <symbol viewBox="0 0 25 24" id="form-input-search">
        <path d="M16.2656 14H15.4756L15.1956 13.73C16.1756 12.59 16.7656 11.11 16.7656 9.5C16.7656 5.91 13.8556 3 10.2656 3C6.67563 3 3.76562 5.91 3.76562 9.5C3.76562 13.09 6.67563 16 10.2656 16C11.8756 16 13.3556 15.41 14.4956 14.43L14.7656 14.71V15.5L19.7656 20.49L21.2556 19L16.2656 14ZM10.2656 14C7.77563 14 5.76562 11.99 5.76562 9.5C5.76562 7.01 7.77563 5 10.2656 5C12.7556 5 14.7656 7.01 14.7656 9.5C14.7656 11.99 12.7556 14 10.2656 14Z" />
    </symbol>

    <symbol viewBox="0 0 24 24" id="catalogue-in-cart">
        <path d="M17.3006 6.3C16.9106 5.91 16.2806 5.91 15.8906 6.3L10.2506 11.94L11.6606 13.35L17.3006 7.7C17.6806 7.32 17.6806 6.68 17.3006 6.3ZM21.5406 6.29L11.6606 16.17L8.18063 12.7C7.79063 12.31 7.16062 12.31 6.77063 12.7C6.38063 13.09 6.38063 13.72 6.77063 14.11L10.9506 18.29C11.3406 18.68 11.9706 18.68 12.3606 18.29L22.9506 7.71C23.3406 7.32 23.3406 6.69 22.9506 6.3H22.9406C22.5606 5.9 21.9306 5.9 21.5406 6.29ZM1.12062 14.12L5.30063 18.3C5.69063 18.69 6.32063 18.69 6.71063 18.3L7.41062 17.6L2.53062 12.7C2.14062 12.31 1.51063 12.31 1.12062 12.7C0.730625 13.09 0.730625 13.73 1.12062 14.12Z" />
    </symbol>

    <symbol viewBox="0 0 18 18" id="report-header-arrow">
        <path d="M2.8275 4.67248L1.5 5.99998L9 13.5L16.5 5.99999L15.1725 4.67249L9 10.845L2.8275 4.67248Z" />
    </symbol>

    <symbol viewBox="0 0 24 24" id="filter-link">
        <path d="M3 17V19H9V17H3ZM3 5V7H13V5H3ZM13 21V19H21V17H13V15H11V21H13ZM7 9V11H3V13H7V15H9V9H7ZM21 13V11H11V13H21ZM15 9H17V7H21V5H17V3H15V9Z" />
    </symbol>

    <symbol viewBox="0 0 24 24" id="filter-close">
        <path d="M20.75 5.0125L18.9875 3.25L12 10.2375L5.0125 3.25L3.25 5.0125L10.2375 12L3.25 18.9875L5.0125 20.75L12 13.7625L18.9875 20.75L20.75 18.9875L13.7625 12L20.75 5.0125Z" />
    </symbol>

</svg>